<svg width="446" height="446" viewBox="0 0 446 446" fill="none" xmlns="http://www.w3.org/2000/svg">
<mask id="mask0_301_2752" style="mask-type:luminance" maskUnits="userSpaceOnUse" x="21" y="21" width="404" height="404">
<path d="M119.659 21.7561H108.78V32.6341H119.659V21.7561Z" fill="white"/>
<path d="M130.537 21.7561H119.659V32.6341H130.537V21.7561Z" fill="white"/>
<path d="M141.415 21.7561H130.537V32.6341H141.415V21.7561Z" fill="white"/>
<path d="M163.171 21.7561H152.293V32.6341H163.171V21.7561Z" fill="white"/>
<path d="M174.049 21.7561H163.171V32.6341H174.049V21.7561Z" fill="white"/>
<path d="M195.805 21.7561H184.927V32.6341H195.805V21.7561Z" fill="white"/>
<path d="M206.683 21.7561H195.805V32.6341H206.683V21.7561Z" fill="white"/>
<path d="M217.561 21.7561H206.683V32.6341H217.561V21.7561Z" fill="white"/>
<path d="M228.439 21.7561H217.561V32.6341H228.439V21.7561Z" fill="white"/>
<path d="M250.195 21.7561H239.317V32.6341H250.195V21.7561Z" fill="white"/>
<path d="M261.073 21.7561H250.195V32.6341H261.073V21.7561Z" fill="white"/>
<path d="M282.829 21.7561H271.951V32.6341H282.829V21.7561Z" fill="white"/>
<path d="M315.463 21.7561H304.585V32.6341H315.463V21.7561Z" fill="white"/>
<path d="M337.22 21.7561H326.341V32.6341H337.22V21.7561Z" fill="white"/>
<path d="M119.659 32.6341H108.78V43.5122H119.659V32.6341Z" fill="white"/>
<path d="M141.415 32.6341H130.537V43.5122H141.415V32.6341Z" fill="white"/>
<path d="M184.927 32.6341H174.049V43.5122H184.927V32.6341Z" fill="white"/>
<path d="M195.805 32.6341H184.927V43.5122H195.805V32.6341Z" fill="white"/>
<path d="M206.683 32.6341H195.805V43.5122H206.683V32.6341Z" fill="white"/>
<path d="M217.561 32.6341H206.683V43.5122H217.561V32.6341Z" fill="white"/>
<path d="M261.073 32.6341H250.195V43.5122H261.073V32.6341Z" fill="white"/>
<path d="M282.829 32.6341H271.951V43.5122H282.829V32.6341Z" fill="white"/>
<path d="M304.585 32.6341H293.707V43.5122H304.585V32.6341Z" fill="white"/>
<path d="M326.341 32.6341H315.463V43.5122H326.341V32.6341Z" fill="white"/>
<path d="M337.22 32.6341H326.341V43.5122H337.22V32.6341Z" fill="white"/>
<path d="M119.659 43.5122H108.78V54.3902H119.659V43.5122Z" fill="white"/>
<path d="M130.537 43.5122H119.659V54.3902H130.537V43.5122Z" fill="white"/>
<path d="M174.049 43.5122H163.171V54.3902H174.049V43.5122Z" fill="white"/>
<path d="M184.927 43.5122H174.049V54.3902H184.927V43.5122Z" fill="white"/>
<path d="M206.683 43.5122H195.805V54.3902H206.683V43.5122Z" fill="white"/>
<path d="M228.439 43.5122H217.561V54.3902H228.439V43.5122Z" fill="white"/>
<path d="M271.951 43.5122H261.073V54.3902H271.951V43.5122Z" fill="white"/>
<path d="M282.829 43.5122H271.951V54.3902H282.829V43.5122Z" fill="white"/>
<path d="M337.22 43.5122H326.341V54.3902H337.22V43.5122Z" fill="white"/>
<path d="M130.537 54.3902H119.659V65.2683H130.537V54.3902Z" fill="white"/>
<path d="M163.171 54.3902H152.293V65.2683H163.171V54.3902Z" fill="white"/>
<path d="M195.805 54.3902H184.927V65.2683H195.805V54.3902Z" fill="white"/>
<path d="M282.829 54.3902H271.951V65.2683H282.829V54.3902Z" fill="white"/>
<path d="M293.707 54.3902H282.829V65.2683H293.707V54.3902Z" fill="white"/>
<path d="M304.585 54.3902H293.707V65.2683H304.585V54.3902Z" fill="white"/>
<path d="M315.463 54.3902H304.585V65.2683H315.463V54.3902Z" fill="white"/>
<path d="M326.341 54.3902H315.463V65.2683H326.341V54.3902Z" fill="white"/>
<path d="M141.415 65.2683H130.537V76.1463H141.415V65.2683Z" fill="white"/>
<path d="M163.171 65.2683H152.293V76.1463H163.171V65.2683Z" fill="white"/>
<path d="M239.317 65.2683H228.439V76.1463H239.317V65.2683Z" fill="white"/>
<path d="M293.707 65.2683H282.829V76.1463H293.707V65.2683Z" fill="white"/>
<path d="M119.659 76.1463H108.78V87.0244H119.659V76.1463Z" fill="white"/>
<path d="M141.415 76.1463H130.537V87.0244H141.415V76.1463Z" fill="white"/>
<path d="M163.171 76.1463H152.293V87.0244H163.171V76.1463Z" fill="white"/>
<path d="M184.927 76.1463H174.049V87.0244H184.927V76.1463Z" fill="white"/>
<path d="M228.439 76.1463H217.561V87.0244H228.439V76.1463Z" fill="white"/>
<path d="M239.317 76.1463H228.439V87.0244H239.317V76.1463Z" fill="white"/>
<path d="M250.195 76.1463H239.317V87.0244H250.195V76.1463Z" fill="white"/>
<path d="M261.073 76.1463H250.195V87.0244H261.073V76.1463Z" fill="white"/>
<path d="M271.951 76.1463H261.073V87.0244H271.951V76.1463Z" fill="white"/>
<path d="M282.829 76.1463H271.951V87.0244H282.829V76.1463Z" fill="white"/>
<path d="M326.341 76.1463H315.463V87.0244H326.341V76.1463Z" fill="white"/>
<path d="M337.22 76.1463H326.341V87.0244H337.22V76.1463Z" fill="white"/>
<path d="M119.659 87.0244H108.78V97.9024H119.659V87.0244Z" fill="white"/>
<path d="M141.415 87.0244H130.537V97.9024H141.415V87.0244Z" fill="white"/>
<path d="M163.171 87.0244H152.293V97.9024H163.171V87.0244Z" fill="white"/>
<path d="M184.927 87.0244H174.049V97.9024H184.927V87.0244Z" fill="white"/>
<path d="M206.683 87.0244H195.805V97.9024H206.683V87.0244Z" fill="white"/>
<path d="M228.439 87.0244H217.561V97.9024H228.439V87.0244Z" fill="white"/>
<path d="M250.195 87.0244H239.317V97.9024H250.195V87.0244Z" fill="white"/>
<path d="M271.951 87.0244H261.073V97.9024H271.951V87.0244Z" fill="white"/>
<path d="M293.707 87.0244H282.829V97.9024H293.707V87.0244Z" fill="white"/>
<path d="M315.463 87.0244H304.585V97.9024H315.463V87.0244Z" fill="white"/>
<path d="M337.22 87.0244H326.341V97.9024H337.22V87.0244Z" fill="white"/>
<path d="M119.659 97.9024H108.78V108.78H119.659V97.9024Z" fill="white"/>
<path d="M130.537 97.9024H119.659V108.78H130.537V97.9024Z" fill="white"/>
<path d="M152.293 97.9024H141.415V108.78H152.293V97.9024Z" fill="white"/>
<path d="M174.049 97.9024H163.171V108.78H174.049V97.9024Z" fill="white"/>
<path d="M195.805 97.9024H184.927V108.78H195.805V97.9024Z" fill="white"/>
<path d="M206.683 97.9024H195.805V108.78H206.683V97.9024Z" fill="white"/>
<path d="M239.317 97.9024H228.439V108.78H239.317V97.9024Z" fill="white"/>
<path d="M250.195 97.9024H239.317V108.78H250.195V97.9024Z" fill="white"/>
<path d="M282.829 97.9024H271.951V108.78H282.829V97.9024Z" fill="white"/>
<path d="M315.463 97.9024H304.585V108.78H315.463V97.9024Z" fill="white"/>
<path d="M337.22 97.9024H326.341V108.78H337.22V97.9024Z" fill="white"/>
<path d="M54.3902 108.78H43.5122V119.659H54.3902V108.78Z" fill="white"/>
<path d="M65.2683 108.78H54.3903V119.659H65.2683V108.78Z" fill="white"/>
<path d="M76.1463 108.78H65.2683V119.659H76.1463V108.78Z" fill="white"/>
<path d="M97.9024 108.78H87.0244V119.659H97.9024V108.78Z" fill="white"/>
<path d="M119.659 108.78H108.78V119.659H119.659V108.78Z" fill="white"/>
<path d="M163.171 108.78H152.293V119.659H163.171V108.78Z" fill="white"/>
<path d="M174.049 108.78H163.171V119.659H174.049V108.78Z" fill="white"/>
<path d="M206.683 108.78H195.805V119.659H206.683V108.78Z" fill="white"/>
<path d="M217.561 108.78H206.683V119.659H217.561V108.78Z" fill="white"/>
<path d="M228.439 108.78H217.561V119.659H228.439V108.78Z" fill="white"/>
<path d="M239.317 108.78H228.439V119.659H239.317V108.78Z" fill="white"/>
<path d="M293.707 108.78H282.829V119.659H293.707V108.78Z" fill="white"/>
<path d="M348.098 108.78H337.22V119.659H348.098V108.78Z" fill="white"/>
<path d="M358.976 108.78H348.098V119.659H358.976V108.78Z" fill="white"/>
<path d="M369.854 108.78H358.976V119.659H369.854V108.78Z" fill="white"/>
<path d="M402.488 108.78H391.61V119.659H402.488V108.78Z" fill="white"/>
<path d="M413.366 108.78H402.488V119.659H413.366V108.78Z" fill="white"/>
<path d="M424.244 108.78H413.366V119.659H424.244V108.78Z" fill="white"/>
<path d="M43.5122 119.659H32.6342V130.537H43.5122V119.659Z" fill="white"/>
<path d="M54.3902 119.659H43.5122V130.537H54.3902V119.659Z" fill="white"/>
<path d="M65.2683 119.659H54.3903V130.537H65.2683V119.659Z" fill="white"/>
<path d="M152.293 119.659H141.415V130.537H152.293V119.659Z" fill="white"/>
<path d="M163.171 119.659H152.293V130.537H163.171V119.659Z" fill="white"/>
<path d="M195.805 119.659H184.927V130.537H195.805V119.659Z" fill="white"/>
<path d="M206.683 119.659H195.805V130.537H206.683V119.659Z" fill="white"/>
<path d="M217.561 119.659H206.683V130.537H217.561V119.659Z" fill="white"/>
<path d="M228.439 119.659H217.561V130.537H228.439V119.659Z" fill="white"/>
<path d="M239.317 119.659H228.439V130.537H239.317V119.659Z" fill="white"/>
<path d="M250.195 119.659H239.317V130.537H250.195V119.659Z" fill="white"/>
<path d="M261.073 119.659H250.195V130.537H261.073V119.659Z" fill="white"/>
<path d="M304.585 119.659H293.707V130.537H304.585V119.659Z" fill="white"/>
<path d="M315.463 119.659H304.585V130.537H315.463V119.659Z" fill="white"/>
<path d="M326.341 119.659H315.463V130.537H326.341V119.659Z" fill="white"/>
<path d="M337.22 119.659H326.341V130.537H337.22V119.659Z" fill="white"/>
<path d="M348.098 119.659H337.22V130.537H348.098V119.659Z" fill="white"/>
<path d="M358.976 119.659H348.098V130.537H358.976V119.659Z" fill="white"/>
<path d="M391.61 119.659H380.732V130.537H391.61V119.659Z" fill="white"/>
<path d="M32.6342 130.537H21.7561V141.415H32.6342V130.537Z" fill="white"/>
<path d="M43.5122 130.537H32.6342V141.415H43.5122V130.537Z" fill="white"/>
<path d="M54.3902 130.537H43.5122V141.415H54.3902V130.537Z" fill="white"/>
<path d="M87.0244 130.537H76.1463V141.415H87.0244V130.537Z" fill="white"/>
<path d="M97.9024 130.537H87.0244V141.415H97.9024V130.537Z" fill="white"/>
<path d="M130.537 130.537H119.659V141.415H130.537V130.537Z" fill="white"/>
<path d="M152.293 130.537H141.415V141.415H152.293V130.537Z" fill="white"/>
<path d="M174.049 130.537H163.171V141.415H174.049V130.537Z" fill="white"/>
<path d="M184.927 130.537H174.049V141.415H184.927V130.537Z" fill="white"/>
<path d="M195.805 130.537H184.927V141.415H195.805V130.537Z" fill="white"/>
<path d="M217.561 130.537H206.683V141.415H217.561V130.537Z" fill="white"/>
<path d="M250.195 130.537H239.317V141.415H250.195V130.537Z" fill="white"/>
<path d="M282.829 130.537H271.951V141.415H282.829V130.537Z" fill="white"/>
<path d="M293.707 130.537H282.829V141.415H293.707V130.537Z" fill="white"/>
<path d="M304.585 130.537H293.707V141.415H304.585V130.537Z" fill="white"/>
<path d="M315.463 130.537H304.585V141.415H315.463V130.537Z" fill="white"/>
<path d="M358.976 130.537H348.098V141.415H358.976V130.537Z" fill="white"/>
<path d="M369.854 130.537H358.976V141.415H369.854V130.537Z" fill="white"/>
<path d="M402.488 130.537H391.61V141.415H402.488V130.537Z" fill="white"/>
<path d="M413.366 130.537H402.488V141.415H413.366V130.537Z" fill="white"/>
<path d="M424.244 130.537H413.366V141.415H424.244V130.537Z" fill="white"/>
<path d="M32.6342 141.415H21.7561V152.293H32.6342V141.415Z" fill="white"/>
<path d="M43.5122 141.415H32.6342V152.293H43.5122V141.415Z" fill="white"/>
<path d="M65.2683 141.415H54.3903V152.293H65.2683V141.415Z" fill="white"/>
<path d="M76.1463 141.415H65.2683V152.293H76.1463V141.415Z" fill="white"/>
<path d="M130.537 141.415H119.659V152.293H130.537V141.415Z" fill="white"/>
<path d="M141.415 141.415H130.537V152.293H141.415V141.415Z" fill="white"/>
<path d="M163.171 141.415H152.293V152.293H163.171V141.415Z" fill="white"/>
<path d="M184.927 141.415H174.049V152.293H184.927V141.415Z" fill="white"/>
<path d="M217.561 141.415H206.683V152.293H217.561V141.415Z" fill="white"/>
<path d="M239.317 141.415H228.439V152.293H239.317V141.415Z" fill="white"/>
<path d="M250.195 141.415H239.317V152.293H250.195V141.415Z" fill="white"/>
<path d="M261.073 141.415H250.195V152.293H261.073V141.415Z" fill="white"/>
<path d="M315.463 141.415H304.585V152.293H315.463V141.415Z" fill="white"/>
<path d="M337.22 141.415H326.341V152.293H337.22V141.415Z" fill="white"/>
<path d="M358.976 141.415H348.098V152.293H358.976V141.415Z" fill="white"/>
<path d="M391.61 141.415H380.732V152.293H391.61V141.415Z" fill="white"/>
<path d="M43.5122 152.293H32.6342V163.171H43.5122V152.293Z" fill="white"/>
<path d="M54.3902 152.293H43.5122V163.171H54.3902V152.293Z" fill="white"/>
<path d="M65.2683 152.293H54.3903V163.171H65.2683V152.293Z" fill="white"/>
<path d="M87.0244 152.293H76.1463V163.171H87.0244V152.293Z" fill="white"/>
<path d="M97.9024 152.293H87.0244V163.171H97.9024V152.293Z" fill="white"/>
<path d="M141.415 152.293H130.537V163.171H141.415V152.293Z" fill="white"/>
<path d="M184.927 152.293H174.049V163.171H184.927V152.293Z" fill="white"/>
<path d="M195.805 152.293H184.927V163.171H195.805V152.293Z" fill="white"/>
<path d="M206.683 152.293H195.805V163.171H206.683V152.293Z" fill="white"/>
<path d="M239.317 152.293H228.439V163.171H239.317V152.293Z" fill="white"/>
<path d="M261.073 152.293H250.195V163.171H261.073V152.293Z" fill="white"/>
<path d="M271.951 152.293H261.073V163.171H271.951V152.293Z" fill="white"/>
<path d="M282.829 152.293H271.951V163.171H282.829V152.293Z" fill="white"/>
<path d="M304.585 152.293H293.707V163.171H304.585V152.293Z" fill="white"/>
<path d="M315.463 152.293H304.585V163.171H315.463V152.293Z" fill="white"/>
<path d="M337.22 152.293H326.341V163.171H337.22V152.293Z" fill="white"/>
<path d="M348.098 152.293H337.22V163.171H348.098V152.293Z" fill="white"/>
<path d="M358.976 152.293H348.098V163.171H358.976V152.293Z" fill="white"/>
<path d="M380.732 152.293H369.854V163.171H380.732V152.293Z" fill="white"/>
<path d="M391.61 152.293H380.732V163.171H391.61V152.293Z" fill="white"/>
<path d="M402.488 152.293H391.61V163.171H402.488V152.293Z" fill="white"/>
<path d="M413.366 152.293H402.488V163.171H413.366V152.293Z" fill="white"/>
<path d="M32.6342 163.171H21.7561V174.049H32.6342V163.171Z" fill="white"/>
<path d="M65.2683 163.171H54.3903V174.049H65.2683V163.171Z" fill="white"/>
<path d="M76.1463 163.171H65.2683V174.049H76.1463V163.171Z" fill="white"/>
<path d="M87.0244 163.171H76.1463V174.049H87.0244V163.171Z" fill="white"/>
<path d="M108.78 163.171H97.9024V174.049H108.78V163.171Z" fill="white"/>
<path d="M119.659 163.171H108.78V174.049H119.659V163.171Z" fill="white"/>
<path d="M152.293 163.171H141.415V174.049H152.293V163.171Z" fill="white"/>
<path d="M174.049 163.171H163.171V174.049H174.049V163.171Z" fill="white"/>
<path d="M206.683 163.171H195.805V174.049H206.683V163.171Z" fill="white"/>
<path d="M217.561 163.171H206.683V174.049H217.561V163.171Z" fill="white"/>
<path d="M228.439 163.171H217.561V174.049H228.439V163.171Z" fill="white"/>
<path d="M239.317 163.171H228.439V174.049H239.317V163.171Z" fill="white"/>
<path d="M250.195 163.171H239.317V174.049H250.195V163.171Z" fill="white"/>
<path d="M271.951 163.171H261.073V174.049H271.951V163.171Z" fill="white"/>
<path d="M282.829 163.171H271.951V174.049H282.829V163.171Z" fill="white"/>
<path d="M293.707 163.171H282.829V174.049H293.707V163.171Z" fill="white"/>
<path d="M315.463 163.171H304.585V174.049H315.463V163.171Z" fill="white"/>
<path d="M337.22 163.171H326.341V174.049H337.22V163.171Z" fill="white"/>
<path d="M348.098 163.171H337.22V174.049H348.098V163.171Z" fill="white"/>
<path d="M391.61 163.171H380.732V174.049H391.61V163.171Z" fill="white"/>
<path d="M402.488 163.171H391.61V174.049H402.488V163.171Z" fill="white"/>
<path d="M43.5122 174.049H32.6342V184.927H43.5122V174.049Z" fill="white"/>
<path d="M65.2683 174.049H54.3903V184.927H65.2683V174.049Z" fill="white"/>
<path d="M76.1463 174.049H65.2683V184.927H76.1463V174.049Z" fill="white"/>
<path d="M97.9024 174.049H87.0244V184.927H97.9024V174.049Z" fill="white"/>
<path d="M108.78 174.049H97.9024V184.927H108.78V174.049Z" fill="white"/>
<path d="M141.415 174.049H130.537V184.927H141.415V174.049Z" fill="white"/>
<path d="M152.293 174.049H141.415V184.927H152.293V174.049Z" fill="white"/>
<path d="M174.049 174.049H163.171V184.927H174.049V174.049Z" fill="white"/>
<path d="M184.927 174.049H174.049V184.927H184.927V174.049Z" fill="white"/>
<path d="M228.439 174.049H217.561V184.927H228.439V174.049Z" fill="white"/>
<path d="M261.073 174.049H250.195V184.927H261.073V174.049Z" fill="white"/>
<path d="M304.585 174.049H293.707V184.927H304.585V174.049Z" fill="white"/>
<path d="M326.341 174.049H315.463V184.927H326.341V174.049Z" fill="white"/>
<path d="M337.22 174.049H326.341V184.927H337.22V174.049Z" fill="white"/>
<path d="M358.976 174.049H348.098V184.927H358.976V174.049Z" fill="white"/>
<path d="M369.854 174.049H358.976V184.927H369.854V174.049Z" fill="white"/>
<path d="M391.61 174.049H380.732V184.927H391.61V174.049Z" fill="white"/>
<path d="M424.244 174.049H413.366V184.927H424.244V174.049Z" fill="white"/>
<path d="M32.6342 184.927H21.7561V195.805H32.6342V184.927Z" fill="white"/>
<path d="M43.5122 184.927H32.6342V195.805H43.5122V184.927Z" fill="white"/>
<path d="M119.659 184.927H108.78V195.805H119.659V184.927Z" fill="white"/>
<path d="M130.537 184.927H119.659V195.805H130.537V184.927Z" fill="white"/>
<path d="M141.415 184.927H130.537V195.805H141.415V184.927Z" fill="white"/>
<path d="M163.171 184.927H152.293V195.805H163.171V184.927Z" fill="white"/>
<path d="M206.683 184.927H195.805V195.805H206.683V184.927Z" fill="white"/>
<path d="M217.561 184.927H206.683V195.805H217.561V184.927Z" fill="white"/>
<path d="M228.439 184.927H217.561V195.805H228.439V184.927Z" fill="white"/>
<path d="M250.195 184.927H239.317V195.805H250.195V184.927Z" fill="white"/>
<path d="M261.073 184.927H250.195V195.805H261.073V184.927Z" fill="white"/>
<path d="M271.951 184.927H261.073V195.805H271.951V184.927Z" fill="white"/>
<path d="M326.341 184.927H315.463V195.805H326.341V184.927Z" fill="white"/>
<path d="M337.22 184.927H326.341V195.805H337.22V184.927Z" fill="white"/>
<path d="M348.098 184.927H337.22V195.805H348.098V184.927Z" fill="white"/>
<path d="M369.854 184.927H358.976V195.805H369.854V184.927Z" fill="white"/>
<path d="M380.732 184.927H369.854V195.805H380.732V184.927Z" fill="white"/>
<path d="M413.366 184.927H402.488V195.805H413.366V184.927Z" fill="white"/>
<path d="M32.6342 195.805H21.7561V206.683H32.6342V195.805Z" fill="white"/>
<path d="M43.5122 195.805H32.6342V206.683H43.5122V195.805Z" fill="white"/>
<path d="M76.1463 195.805H65.2683V206.683H76.1463V195.805Z" fill="white"/>
<path d="M97.9024 195.805H87.0244V206.683H97.9024V195.805Z" fill="white"/>
<path d="M119.659 195.805H108.78V206.683H119.659V195.805Z" fill="white"/>
<path d="M130.537 195.805H119.659V206.683H130.537V195.805Z" fill="white"/>
<path d="M141.415 195.805H130.537V206.683H141.415V195.805Z" fill="white"/>
<path d="M174.049 195.805H163.171V206.683H174.049V195.805Z" fill="white"/>
<path d="M184.927 195.805H174.049V206.683H184.927V195.805Z" fill="white"/>
<path d="M228.439 195.805H217.561V206.683H228.439V195.805Z" fill="white"/>
<path d="M239.317 195.805H228.439V206.683H239.317V195.805Z" fill="white"/>
<path d="M282.829 195.805H271.951V206.683H282.829V195.805Z" fill="white"/>
<path d="M293.707 195.805H282.829V206.683H293.707V195.805Z" fill="white"/>
<path d="M304.585 195.805H293.707V206.683H304.585V195.805Z" fill="white"/>
<path d="M315.463 195.805H304.585V206.683H315.463V195.805Z" fill="white"/>
<path d="M326.341 195.805H315.463V206.683H326.341V195.805Z" fill="white"/>
<path d="M348.098 195.805H337.22V206.683H348.098V195.805Z" fill="white"/>
<path d="M358.976 195.805H348.098V206.683H358.976V195.805Z" fill="white"/>
<path d="M369.854 195.805H358.976V206.683H369.854V195.805Z" fill="white"/>
<path d="M380.732 195.805H369.854V206.683H380.732V195.805Z" fill="white"/>
<path d="M402.488 195.805H391.61V206.683H402.488V195.805Z" fill="white"/>
<path d="M413.366 195.805H402.488V206.683H413.366V195.805Z" fill="white"/>
<path d="M424.244 195.805H413.366V206.683H424.244V195.805Z" fill="white"/>
<path d="M43.5122 206.683H32.6342V217.561H43.5122V206.683Z" fill="white"/>
<path d="M54.3902 206.683H43.5122V217.561H54.3902V206.683Z" fill="white"/>
<path d="M130.537 206.683H119.659V217.561H130.537V206.683Z" fill="white"/>
<path d="M141.415 206.683H130.537V217.561H141.415V206.683Z" fill="white"/>
<path d="M174.049 206.683H163.171V217.561H174.049V206.683Z" fill="white"/>
<path d="M184.927 206.683H174.049V217.561H184.927V206.683Z" fill="white"/>
<path d="M217.561 206.683H206.683V217.561H217.561V206.683Z" fill="white"/>
<path d="M250.195 206.683H239.317V217.561H250.195V206.683Z" fill="white"/>
<path d="M271.951 206.683H261.073V217.561H271.951V206.683Z" fill="white"/>
<path d="M293.707 206.683H282.829V217.561H293.707V206.683Z" fill="white"/>
<path d="M304.585 206.683H293.707V217.561H304.585V206.683Z" fill="white"/>
<path d="M337.22 206.683H326.341V217.561H337.22V206.683Z" fill="white"/>
<path d="M348.098 206.683H337.22V217.561H348.098V206.683Z" fill="white"/>
<path d="M369.854 206.683H358.976V217.561H369.854V206.683Z" fill="white"/>
<path d="M402.488 206.683H391.61V217.561H402.488V206.683Z" fill="white"/>
<path d="M32.6342 217.561H21.7561V228.439H32.6342V217.561Z" fill="white"/>
<path d="M54.3902 217.561H43.5122V228.439H54.3902V217.561Z" fill="white"/>
<path d="M76.1463 217.561H65.2683V228.439H76.1463V217.561Z" fill="white"/>
<path d="M97.9024 217.561H87.0244V228.439H97.9024V217.561Z" fill="white"/>
<path d="M141.415 217.561H130.537V228.439H141.415V217.561Z" fill="white"/>
<path d="M174.049 217.561H163.171V228.439H174.049V217.561Z" fill="white"/>
<path d="M184.927 217.561H174.049V228.439H184.927V217.561Z" fill="white"/>
<path d="M217.561 217.561H206.683V228.439H217.561V217.561Z" fill="white"/>
<path d="M228.439 217.561H217.561V228.439H228.439V217.561Z" fill="white"/>
<path d="M239.317 217.561H228.439V228.439H239.317V217.561Z" fill="white"/>
<path d="M271.951 217.561H261.073V228.439H271.951V217.561Z" fill="white"/>
<path d="M326.341 217.561H315.463V228.439H326.341V217.561Z" fill="white"/>
<path d="M337.22 217.561H326.341V228.439H337.22V217.561Z" fill="white"/>
<path d="M348.098 217.561H337.22V228.439H348.098V217.561Z" fill="white"/>
<path d="M380.732 217.561H369.854V228.439H380.732V217.561Z" fill="white"/>
<path d="M391.61 217.561H380.732V228.439H391.61V217.561Z" fill="white"/>
<path d="M402.488 217.561H391.61V228.439H402.488V217.561Z" fill="white"/>
<path d="M413.366 217.561H402.488V228.439H413.366V217.561Z" fill="white"/>
<path d="M424.244 217.561H413.366V228.439H424.244V217.561Z" fill="white"/>
<path d="M43.5122 228.439H32.6342V239.317H43.5122V228.439Z" fill="white"/>
<path d="M65.2683 228.439H54.3903V239.317H65.2683V228.439Z" fill="white"/>
<path d="M87.0244 228.439H76.1463V239.317H87.0244V228.439Z" fill="white"/>
<path d="M130.537 228.439H119.659V239.317H130.537V228.439Z" fill="white"/>
<path d="M163.171 228.439H152.293V239.317H163.171V228.439Z" fill="white"/>
<path d="M184.927 228.439H174.049V239.317H184.927V228.439Z" fill="white"/>
<path d="M195.805 228.439H184.927V239.317H195.805V228.439Z" fill="white"/>
<path d="M206.683 228.439H195.805V239.317H206.683V228.439Z" fill="white"/>
<path d="M217.561 228.439H206.683V239.317H217.561V228.439Z" fill="white"/>
<path d="M239.317 228.439H228.439V239.317H239.317V228.439Z" fill="white"/>
<path d="M250.195 228.439H239.317V239.317H250.195V228.439Z" fill="white"/>
<path d="M261.073 228.439H250.195V239.317H261.073V228.439Z" fill="white"/>
<path d="M293.707 228.439H282.829V239.317H293.707V228.439Z" fill="white"/>
<path d="M315.463 228.439H304.585V239.317H315.463V228.439Z" fill="white"/>
<path d="M326.341 228.439H315.463V239.317H326.341V228.439Z" fill="white"/>
<path d="M348.098 228.439H337.22V239.317H348.098V228.439Z" fill="white"/>
<path d="M369.854 228.439H358.976V239.317H369.854V228.439Z" fill="white"/>
<path d="M380.732 228.439H369.854V239.317H380.732V228.439Z" fill="white"/>
<path d="M413.366 228.439H402.488V239.317H413.366V228.439Z" fill="white"/>
<path d="M32.6342 239.317H21.7561V250.195H32.6342V239.317Z" fill="white"/>
<path d="M54.3902 239.317H43.5122V250.195H54.3902V239.317Z" fill="white"/>
<path d="M65.2683 239.317H54.3903V250.195H65.2683V239.317Z" fill="white"/>
<path d="M76.1463 239.317H65.2683V250.195H76.1463V239.317Z" fill="white"/>
<path d="M87.0244 239.317H76.1463V250.195H87.0244V239.317Z" fill="white"/>
<path d="M97.9024 239.317H87.0244V250.195H97.9024V239.317Z" fill="white"/>
<path d="M108.78 239.317H97.9024V250.195H108.78V239.317Z" fill="white"/>
<path d="M119.659 239.317H108.78V250.195H119.659V239.317Z" fill="white"/>
<path d="M163.171 239.317H152.293V250.195H163.171V239.317Z" fill="white"/>
<path d="M174.049 239.317H163.171V250.195H174.049V239.317Z" fill="white"/>
<path d="M228.439 239.317H217.561V250.195H228.439V239.317Z" fill="white"/>
<path d="M250.195 239.317H239.317V250.195H250.195V239.317Z" fill="white"/>
<path d="M261.073 239.317H250.195V250.195H261.073V239.317Z" fill="white"/>
<path d="M271.951 239.317H261.073V250.195H271.951V239.317Z" fill="white"/>
<path d="M282.829 239.317H271.951V250.195H282.829V239.317Z" fill="white"/>
<path d="M293.707 239.317H282.829V250.195H293.707V239.317Z" fill="white"/>
<path d="M304.585 239.317H293.707V250.195H304.585V239.317Z" fill="white"/>
<path d="M315.463 239.317H304.585V250.195H315.463V239.317Z" fill="white"/>
<path d="M326.341 239.317H315.463V250.195H326.341V239.317Z" fill="white"/>
<path d="M348.098 239.317H337.22V250.195H348.098V239.317Z" fill="white"/>
<path d="M358.976 239.317H348.098V250.195H358.976V239.317Z" fill="white"/>
<path d="M369.854 239.317H358.976V250.195H369.854V239.317Z" fill="white"/>
<path d="M380.732 239.317H369.854V250.195H380.732V239.317Z" fill="white"/>
<path d="M391.61 239.317H380.732V250.195H391.61V239.317Z" fill="white"/>
<path d="M402.488 239.317H391.61V250.195H402.488V239.317Z" fill="white"/>
<path d="M424.244 239.317H413.366V250.195H424.244V239.317Z" fill="white"/>
<path d="M32.6342 250.195H21.7561V261.073H32.6342V250.195Z" fill="white"/>
<path d="M54.3902 250.195H43.5122V261.073H54.3902V250.195Z" fill="white"/>
<path d="M65.2683 250.195H54.3903V261.073H65.2683V250.195Z" fill="white"/>
<path d="M76.1463 250.195H65.2683V261.073H76.1463V250.195Z" fill="white"/>
<path d="M87.0244 250.195H76.1463V261.073H87.0244V250.195Z" fill="white"/>
<path d="M108.78 250.195H97.9024V261.073H108.78V250.195Z" fill="white"/>
<path d="M119.659 250.195H108.78V261.073H119.659V250.195Z" fill="white"/>
<path d="M152.293 250.195H141.415V261.073H152.293V250.195Z" fill="white"/>
<path d="M163.171 250.195H152.293V261.073H163.171V250.195Z" fill="white"/>
<path d="M184.927 250.195H174.049V261.073H184.927V250.195Z" fill="white"/>
<path d="M206.683 250.195H195.805V261.073H206.683V250.195Z" fill="white"/>
<path d="M217.561 250.195H206.683V261.073H217.561V250.195Z" fill="white"/>
<path d="M239.317 250.195H228.439V261.073H239.317V250.195Z" fill="white"/>
<path d="M250.195 250.195H239.317V261.073H250.195V250.195Z" fill="white"/>
<path d="M271.951 250.195H261.073V261.073H271.951V250.195Z" fill="white"/>
<path d="M282.829 250.195H271.951V261.073H282.829V250.195Z" fill="white"/>
<path d="M293.707 250.195H282.829V261.073H293.707V250.195Z" fill="white"/>
<path d="M304.585 250.195H293.707V261.073H304.585V250.195Z" fill="white"/>
<path d="M348.098 250.195H337.22V261.073H348.098V250.195Z" fill="white"/>
<path d="M369.854 250.195H358.976V261.073H369.854V250.195Z" fill="white"/>
<path d="M391.61 250.195H380.732V261.073H391.61V250.195Z" fill="white"/>
<path d="M413.366 250.195H402.488V261.073H413.366V250.195Z" fill="white"/>
<path d="M32.6342 261.073H21.7561V271.951H32.6342V261.073Z" fill="white"/>
<path d="M43.5122 261.073H32.6342V271.951H43.5122V261.073Z" fill="white"/>
<path d="M65.2683 261.073H54.3903V271.951H65.2683V261.073Z" fill="white"/>
<path d="M76.1463 261.073H65.2683V271.951H76.1463V261.073Z" fill="white"/>
<path d="M97.9024 261.073H87.0244V271.951H97.9024V261.073Z" fill="white"/>
<path d="M152.293 261.073H141.415V271.951H152.293V261.073Z" fill="white"/>
<path d="M174.049 261.073H163.171V271.951H174.049V261.073Z" fill="white"/>
<path d="M184.927 261.073H174.049V271.951H184.927V261.073Z" fill="white"/>
<path d="M195.805 261.073H184.927V271.951H195.805V261.073Z" fill="white"/>
<path d="M217.561 261.073H206.683V271.951H217.561V261.073Z" fill="white"/>
<path d="M228.439 261.073H217.561V271.951H228.439V261.073Z" fill="white"/>
<path d="M261.073 261.073H250.195V271.951H261.073V261.073Z" fill="white"/>
<path d="M271.951 261.073H261.073V271.951H271.951V261.073Z" fill="white"/>
<path d="M282.829 261.073H271.951V271.951H282.829V261.073Z" fill="white"/>
<path d="M293.707 261.073H282.829V271.951H293.707V261.073Z" fill="white"/>
<path d="M304.585 261.073H293.707V271.951H304.585V261.073Z" fill="white"/>
<path d="M315.463 261.073H304.585V271.951H315.463V261.073Z" fill="white"/>
<path d="M326.341 261.073H315.463V271.951H326.341V261.073Z" fill="white"/>
<path d="M348.098 261.073H337.22V271.951H348.098V261.073Z" fill="white"/>
<path d="M402.488 261.073H391.61V271.951H402.488V261.073Z" fill="white"/>
<path d="M413.366 261.073H402.488V271.951H413.366V261.073Z" fill="white"/>
<path d="M424.244 261.073H413.366V271.951H424.244V261.073Z" fill="white"/>
<path d="M32.6342 271.951H21.7561V282.829H32.6342V271.951Z" fill="white"/>
<path d="M43.5122 271.951H32.6342V282.829H43.5122V271.951Z" fill="white"/>
<path d="M65.2683 271.951H54.3903V282.829H65.2683V271.951Z" fill="white"/>
<path d="M76.1463 271.951H65.2683V282.829H76.1463V271.951Z" fill="white"/>
<path d="M130.537 271.951H119.659V282.829H130.537V271.951Z" fill="white"/>
<path d="M174.049 271.951H163.171V282.829H174.049V271.951Z" fill="white"/>
<path d="M184.927 271.951H174.049V282.829H184.927V271.951Z" fill="white"/>
<path d="M195.805 271.951H184.927V282.829H195.805V271.951Z" fill="white"/>
<path d="M206.683 271.951H195.805V282.829H206.683V271.951Z" fill="white"/>
<path d="M228.439 271.951H217.561V282.829H228.439V271.951Z" fill="white"/>
<path d="M239.317 271.951H228.439V282.829H239.317V271.951Z" fill="white"/>
<path d="M250.195 271.951H239.317V282.829H250.195V271.951Z" fill="white"/>
<path d="M271.951 271.951H261.073V282.829H271.951V271.951Z" fill="white"/>
<path d="M293.707 271.951H282.829V282.829H293.707V271.951Z" fill="white"/>
<path d="M304.585 271.951H293.707V282.829H304.585V271.951Z" fill="white"/>
<path d="M369.854 271.951H358.976V282.829H369.854V271.951Z" fill="white"/>
<path d="M413.366 271.951H402.488V282.829H413.366V271.951Z" fill="white"/>
<path d="M424.244 271.951H413.366V282.829H424.244V271.951Z" fill="white"/>
<path d="M32.6342 282.829H21.7561V293.707H32.6342V282.829Z" fill="white"/>
<path d="M54.3902 282.829H43.5122V293.707H54.3902V282.829Z" fill="white"/>
<path d="M76.1463 282.829H65.2683V293.707H76.1463V282.829Z" fill="white"/>
<path d="M97.9024 282.829H87.0244V293.707H97.9024V282.829Z" fill="white"/>
<path d="M130.537 282.829H119.659V293.707H130.537V282.829Z" fill="white"/>
<path d="M163.171 282.829H152.293V293.707H163.171V282.829Z" fill="white"/>
<path d="M174.049 282.829H163.171V293.707H174.049V282.829Z" fill="white"/>
<path d="M206.683 282.829H195.805V293.707H206.683V282.829Z" fill="white"/>
<path d="M217.561 282.829H206.683V293.707H217.561V282.829Z" fill="white"/>
<path d="M239.317 282.829H228.439V293.707H239.317V282.829Z" fill="white"/>
<path d="M250.195 282.829H239.317V293.707H250.195V282.829Z" fill="white"/>
<path d="M271.951 282.829H261.073V293.707H271.951V282.829Z" fill="white"/>
<path d="M293.707 282.829H282.829V293.707H293.707V282.829Z" fill="white"/>
<path d="M315.463 282.829H304.585V293.707H315.463V282.829Z" fill="white"/>
<path d="M337.22 282.829H326.341V293.707H337.22V282.829Z" fill="white"/>
<path d="M348.098 282.829H337.22V293.707H348.098V282.829Z" fill="white"/>
<path d="M391.61 282.829H380.732V293.707H391.61V282.829Z" fill="white"/>
<path d="M402.488 282.829H391.61V293.707H402.488V282.829Z" fill="white"/>
<path d="M413.366 282.829H402.488V293.707H413.366V282.829Z" fill="white"/>
<path d="M424.244 282.829H413.366V293.707H424.244V282.829Z" fill="white"/>
<path d="M32.6342 293.707H21.7561V304.585H32.6342V293.707Z" fill="white"/>
<path d="M43.5122 293.707H32.6342V304.585H43.5122V293.707Z" fill="white"/>
<path d="M76.1463 293.707H65.2683V304.585H76.1463V293.707Z" fill="white"/>
<path d="M87.0244 293.707H76.1463V304.585H87.0244V293.707Z" fill="white"/>
<path d="M130.537 293.707H119.659V304.585H130.537V293.707Z" fill="white"/>
<path d="M141.415 293.707H130.537V304.585H141.415V293.707Z" fill="white"/>
<path d="M163.171 293.707H152.293V304.585H163.171V293.707Z" fill="white"/>
<path d="M228.439 293.707H217.561V304.585H228.439V293.707Z" fill="white"/>
<path d="M250.195 293.707H239.317V304.585H250.195V293.707Z" fill="white"/>
<path d="M261.073 293.707H250.195V304.585H261.073V293.707Z" fill="white"/>
<path d="M271.951 293.707H261.073V304.585H271.951V293.707Z" fill="white"/>
<path d="M326.341 293.707H315.463V304.585H326.341V293.707Z" fill="white"/>
<path d="M358.976 293.707H348.098V304.585H358.976V293.707Z" fill="white"/>
<path d="M369.854 293.707H358.976V304.585H369.854V293.707Z" fill="white"/>
<path d="M380.732 293.707H369.854V304.585H380.732V293.707Z" fill="white"/>
<path d="M402.488 293.707H391.61V304.585H402.488V293.707Z" fill="white"/>
<path d="M32.6342 304.585H21.7561V315.463H32.6342V304.585Z" fill="white"/>
<path d="M65.2683 304.585H54.3903V315.463H65.2683V304.585Z" fill="white"/>
<path d="M87.0244 304.585H76.1463V315.463H87.0244V304.585Z" fill="white"/>
<path d="M97.9024 304.585H87.0244V315.463H97.9024V304.585Z" fill="white"/>
<path d="M130.537 304.585H119.659V315.463H130.537V304.585Z" fill="white"/>
<path d="M141.415 304.585H130.537V315.463H141.415V304.585Z" fill="white"/>
<path d="M152.293 304.585H141.415V315.463H152.293V304.585Z" fill="white"/>
<path d="M163.171 304.585H152.293V315.463H163.171V304.585Z" fill="white"/>
<path d="M206.683 304.585H195.805V315.463H206.683V304.585Z" fill="white"/>
<path d="M217.561 304.585H206.683V315.463H217.561V304.585Z" fill="white"/>
<path d="M228.439 304.585H217.561V315.463H228.439V304.585Z" fill="white"/>
<path d="M271.951 304.585H261.073V315.463H271.951V304.585Z" fill="white"/>
<path d="M282.829 304.585H271.951V315.463H282.829V304.585Z" fill="white"/>
<path d="M293.707 304.585H282.829V315.463H293.707V304.585Z" fill="white"/>
<path d="M304.585 304.585H293.707V315.463H304.585V304.585Z" fill="white"/>
<path d="M315.463 304.585H304.585V315.463H315.463V304.585Z" fill="white"/>
<path d="M326.341 304.585H315.463V315.463H326.341V304.585Z" fill="white"/>
<path d="M337.22 304.585H326.341V315.463H337.22V304.585Z" fill="white"/>
<path d="M358.976 304.585H348.098V315.463H358.976V304.585Z" fill="white"/>
<path d="M380.732 304.585H369.854V315.463H380.732V304.585Z" fill="white"/>
<path d="M402.488 304.585H391.61V315.463H402.488V304.585Z" fill="white"/>
<path d="M424.244 304.585H413.366V315.463H424.244V304.585Z" fill="white"/>
<path d="M32.6342 315.463H21.7561V326.341H32.6342V315.463Z" fill="white"/>
<path d="M54.3902 315.463H43.5122V326.341H54.3902V315.463Z" fill="white"/>
<path d="M87.0244 315.463H76.1463V326.341H87.0244V315.463Z" fill="white"/>
<path d="M119.659 315.463H108.78V326.341H119.659V315.463Z" fill="white"/>
<path d="M174.049 315.463H163.171V326.341H174.049V315.463Z" fill="white"/>
<path d="M184.927 315.463H174.049V326.341H184.927V315.463Z" fill="white"/>
<path d="M228.439 315.463H217.561V326.341H228.439V315.463Z" fill="white"/>
<path d="M250.195 315.463H239.317V326.341H250.195V315.463Z" fill="white"/>
<path d="M282.829 315.463H271.951V326.341H282.829V315.463Z" fill="white"/>
<path d="M315.463 315.463H304.585V326.341H315.463V315.463Z" fill="white"/>
<path d="M326.341 315.463H315.463V326.341H326.341V315.463Z" fill="white"/>
<path d="M348.098 315.463H337.22V326.341H348.098V315.463Z" fill="white"/>
<path d="M369.854 315.463H358.976V326.341H369.854V315.463Z" fill="white"/>
<path d="M380.732 315.463H369.854V326.341H380.732V315.463Z" fill="white"/>
<path d="M391.61 315.463H380.732V326.341H391.61V315.463Z" fill="white"/>
<path d="M413.366 315.463H402.488V326.341H413.366V315.463Z" fill="white"/>
<path d="M424.244 315.463H413.366V326.341H424.244V315.463Z" fill="white"/>
<path d="M32.6342 326.341H21.7561V337.22H32.6342V326.341Z" fill="white"/>
<path d="M65.2683 326.341H54.3903V337.22H65.2683V326.341Z" fill="white"/>
<path d="M97.9024 326.341H87.0244V337.22H97.9024V326.341Z" fill="white"/>
<path d="M108.78 326.341H97.9024V337.22H108.78V326.341Z" fill="white"/>
<path d="M141.415 326.341H130.537V337.22H141.415V326.341Z" fill="white"/>
<path d="M163.171 326.341H152.293V337.22H163.171V326.341Z" fill="white"/>
<path d="M174.049 326.341H163.171V337.22H174.049V326.341Z" fill="white"/>
<path d="M206.683 326.341H195.805V337.22H206.683V326.341Z" fill="white"/>
<path d="M217.561 326.341H206.683V337.22H217.561V326.341Z" fill="white"/>
<path d="M228.439 326.341H217.561V337.22H228.439V326.341Z" fill="white"/>
<path d="M282.829 326.341H271.951V337.22H282.829V326.341Z" fill="white"/>
<path d="M293.707 326.341H282.829V337.22H293.707V326.341Z" fill="white"/>
<path d="M304.585 326.341H293.707V337.22H304.585V326.341Z" fill="white"/>
<path d="M315.463 326.341H304.585V337.22H315.463V326.341Z" fill="white"/>
<path d="M326.341 326.341H315.463V337.22H326.341V326.341Z" fill="white"/>
<path d="M337.22 326.341H326.341V337.22H337.22V326.341Z" fill="white"/>
<path d="M348.098 326.341H337.22V337.22H348.098V326.341Z" fill="white"/>
<path d="M358.976 326.341H348.098V337.22H358.976V326.341Z" fill="white"/>
<path d="M369.854 326.341H358.976V337.22H369.854V326.341Z" fill="white"/>
<path d="M380.732 326.341H369.854V337.22H380.732V326.341Z" fill="white"/>
<path d="M391.61 326.341H380.732V337.22H391.61V326.341Z" fill="white"/>
<path d="M413.366 326.341H402.488V337.22H413.366V326.341Z" fill="white"/>
<path d="M119.659 337.22H108.78V348.098H119.659V337.22Z" fill="white"/>
<path d="M141.415 337.22H130.537V348.098H141.415V337.22Z" fill="white"/>
<path d="M152.293 337.22H141.415V348.098H152.293V337.22Z" fill="white"/>
<path d="M174.049 337.22H163.171V348.098H174.049V337.22Z" fill="white"/>
<path d="M228.439 337.22H217.561V348.098H228.439V337.22Z" fill="white"/>
<path d="M271.951 337.22H261.073V348.098H271.951V337.22Z" fill="white"/>
<path d="M282.829 337.22H271.951V348.098H282.829V337.22Z" fill="white"/>
<path d="M315.463 337.22H304.585V348.098H315.463V337.22Z" fill="white"/>
<path d="M326.341 337.22H315.463V348.098H326.341V337.22Z" fill="white"/>
<path d="M337.22 337.22H326.341V348.098H337.22V337.22Z" fill="white"/>
<path d="M380.732 337.22H369.854V348.098H380.732V337.22Z" fill="white"/>
<path d="M413.366 337.22H402.488V348.098H413.366V337.22Z" fill="white"/>
<path d="M152.293 348.098H141.415V358.976H152.293V348.098Z" fill="white"/>
<path d="M206.683 348.098H195.805V358.976H206.683V348.098Z" fill="white"/>
<path d="M239.317 348.098H228.439V358.976H239.317V348.098Z" fill="white"/>
<path d="M261.073 348.098H250.195V358.976H261.073V348.098Z" fill="white"/>
<path d="M271.951 348.098H261.073V358.976H271.951V348.098Z" fill="white"/>
<path d="M293.707 348.098H282.829V358.976H293.707V348.098Z" fill="white"/>
<path d="M337.22 348.098H326.341V358.976H337.22V348.098Z" fill="white"/>
<path d="M358.976 348.098H348.098V358.976H358.976V348.098Z" fill="white"/>
<path d="M380.732 348.098H369.854V358.976H380.732V348.098Z" fill="white"/>
<path d="M391.61 348.098H380.732V358.976H391.61V348.098Z" fill="white"/>
<path d="M413.366 348.098H402.488V358.976H413.366V348.098Z" fill="white"/>
<path d="M424.244 348.098H413.366V358.976H424.244V348.098Z" fill="white"/>
<path d="M130.537 358.976H119.659V369.854H130.537V358.976Z" fill="white"/>
<path d="M141.415 358.976H130.537V369.854H141.415V358.976Z" fill="white"/>
<path d="M163.171 358.976H152.293V369.854H163.171V358.976Z" fill="white"/>
<path d="M174.049 358.976H163.171V369.854H174.049V358.976Z" fill="white"/>
<path d="M195.805 358.976H184.927V369.854H195.805V358.976Z" fill="white"/>
<path d="M228.439 358.976H217.561V369.854H228.439V358.976Z" fill="white"/>
<path d="M239.317 358.976H228.439V369.854H239.317V358.976Z" fill="white"/>
<path d="M250.195 358.976H239.317V369.854H250.195V358.976Z" fill="white"/>
<path d="M261.073 358.976H250.195V369.854H261.073V358.976Z" fill="white"/>
<path d="M271.951 358.976H261.073V369.854H271.951V358.976Z" fill="white"/>
<path d="M315.463 358.976H304.585V369.854H315.463V358.976Z" fill="white"/>
<path d="M337.22 358.976H326.341V369.854H337.22V358.976Z" fill="white"/>
<path d="M380.732 358.976H369.854V369.854H380.732V358.976Z" fill="white"/>
<path d="M413.366 358.976H402.488V369.854H413.366V358.976Z" fill="white"/>
<path d="M119.659 369.854H108.78V380.732H119.659V369.854Z" fill="white"/>
<path d="M163.171 369.854H152.293V380.732H163.171V369.854Z" fill="white"/>
<path d="M174.049 369.854H163.171V380.732H174.049V369.854Z" fill="white"/>
<path d="M206.683 369.854H195.805V380.732H206.683V369.854Z" fill="white"/>
<path d="M282.829 369.854H271.951V380.732H282.829V369.854Z" fill="white"/>
<path d="M304.585 369.854H293.707V380.732H304.585V369.854Z" fill="white"/>
<path d="M315.463 369.854H304.585V380.732H315.463V369.854Z" fill="white"/>
<path d="M326.341 369.854H315.463V380.732H326.341V369.854Z" fill="white"/>
<path d="M337.22 369.854H326.341V380.732H337.22V369.854Z" fill="white"/>
<path d="M348.098 369.854H337.22V380.732H348.098V369.854Z" fill="white"/>
<path d="M358.976 369.854H348.098V380.732H358.976V369.854Z" fill="white"/>
<path d="M369.854 369.854H358.976V380.732H369.854V369.854Z" fill="white"/>
<path d="M380.732 369.854H369.854V380.732H380.732V369.854Z" fill="white"/>
<path d="M402.488 369.854H391.61V380.732H402.488V369.854Z" fill="white"/>
<path d="M413.366 369.854H402.488V380.732H413.366V369.854Z" fill="white"/>
<path d="M424.244 369.854H413.366V380.732H424.244V369.854Z" fill="white"/>
<path d="M119.659 380.732H108.78V391.61H119.659V380.732Z" fill="white"/>
<path d="M141.415 380.732H130.537V391.61H141.415V380.732Z" fill="white"/>
<path d="M174.049 380.732H163.171V391.61H174.049V380.732Z" fill="white"/>
<path d="M195.805 380.732H184.927V391.61H195.805V380.732Z" fill="white"/>
<path d="M261.073 380.732H250.195V391.61H261.073V380.732Z" fill="white"/>
<path d="M293.707 380.732H282.829V391.61H293.707V380.732Z" fill="white"/>
<path d="M326.341 380.732H315.463V391.61H326.341V380.732Z" fill="white"/>
<path d="M358.976 380.732H348.098V391.61H358.976V380.732Z" fill="white"/>
<path d="M380.732 380.732H369.854V391.61H380.732V380.732Z" fill="white"/>
<path d="M391.61 380.732H380.732V391.61H391.61V380.732Z" fill="white"/>
<path d="M402.488 380.732H391.61V391.61H402.488V380.732Z" fill="white"/>
<path d="M119.659 391.61H108.78V402.488H119.659V391.61Z" fill="white"/>
<path d="M130.537 391.61H119.659V402.488H130.537V391.61Z" fill="white"/>
<path d="M141.415 391.61H130.537V402.488H141.415V391.61Z" fill="white"/>
<path d="M184.927 391.61H174.049V402.488H184.927V391.61Z" fill="white"/>
<path d="M206.683 391.61H195.805V402.488H206.683V391.61Z" fill="white"/>
<path d="M250.195 391.61H239.317V402.488H250.195V391.61Z" fill="white"/>
<path d="M261.073 391.61H250.195V402.488H261.073V391.61Z" fill="white"/>
<path d="M304.585 391.61H293.707V402.488H304.585V391.61Z" fill="white"/>
<path d="M326.341 391.61H315.463V402.488H326.341V391.61Z" fill="white"/>
<path d="M348.098 391.61H337.22V402.488H348.098V391.61Z" fill="white"/>
<path d="M369.854 391.61H358.976V402.488H369.854V391.61Z" fill="white"/>
<path d="M424.244 391.61H413.366V402.488H424.244V391.61Z" fill="white"/>
<path d="M152.293 402.488H141.415V413.366H152.293V402.488Z" fill="white"/>
<path d="M163.171 402.488H152.293V413.366H163.171V402.488Z" fill="white"/>
<path d="M174.049 402.488H163.171V413.366H174.049V402.488Z" fill="white"/>
<path d="M195.805 402.488H184.927V413.366H195.805V402.488Z" fill="white"/>
<path d="M206.683 402.488H195.805V413.366H206.683V402.488Z" fill="white"/>
<path d="M217.561 402.488H206.683V413.366H217.561V402.488Z" fill="white"/>
<path d="M271.951 402.488H261.073V413.366H271.951V402.488Z" fill="white"/>
<path d="M293.707 402.488H282.829V413.366H293.707V402.488Z" fill="white"/>
<path d="M315.463 402.488H304.585V413.366H315.463V402.488Z" fill="white"/>
<path d="M326.341 402.488H315.463V413.366H326.341V402.488Z" fill="white"/>
<path d="M337.22 402.488H326.341V413.366H337.22V402.488Z" fill="white"/>
<path d="M348.098 402.488H337.22V413.366H348.098V402.488Z" fill="white"/>
<path d="M358.976 402.488H348.098V413.366H358.976V402.488Z" fill="white"/>
<path d="M369.854 402.488H358.976V413.366H369.854V402.488Z" fill="white"/>
<path d="M380.732 402.488H369.854V413.366H380.732V402.488Z" fill="white"/>
<path d="M424.244 402.488H413.366V413.366H424.244V402.488Z" fill="white"/>
<path d="M141.415 413.366H130.537V424.244H141.415V413.366Z" fill="white"/>
<path d="M152.293 413.366H141.415V424.244H152.293V413.366Z" fill="white"/>
<path d="M184.927 413.366H174.049V424.244H184.927V413.366Z" fill="white"/>
<path d="M217.561 413.366H206.683V424.244H217.561V413.366Z" fill="white"/>
<path d="M228.439 413.366H217.561V424.244H228.439V413.366Z" fill="white"/>
<path d="M239.317 413.366H228.439V424.244H239.317V413.366Z" fill="white"/>
<path d="M261.073 413.366H250.195V424.244H261.073V413.366Z" fill="white"/>
<path d="M271.951 413.366H261.073V424.244H271.951V413.366Z" fill="white"/>
<path d="M293.707 413.366H282.829V424.244H293.707V413.366Z" fill="white"/>
<path d="M304.585 413.366H293.707V424.244H304.585V413.366Z" fill="white"/>
<path d="M315.463 413.366H304.585V424.244H315.463V413.366Z" fill="white"/>
<path d="M358.976 413.366H348.098V424.244H358.976V413.366Z" fill="white"/>
<path d="M369.854 413.366H358.976V424.244H369.854V413.366Z" fill="white"/>
<path d="M380.732 413.366H369.854V424.244H380.732V413.366Z" fill="white"/>
<path d="M391.61 413.366H380.732V424.244H391.61V413.366Z" fill="white"/>
<path d="M402.488 413.366H391.61V424.244H402.488V413.366Z" fill="white"/>
<path d="M413.366 413.366H402.488V424.244H413.366V413.366Z" fill="white"/>
<path d="M424.244 413.366H413.366V424.244H424.244V413.366Z" fill="white"/>
</mask>
<g mask="url(#mask0_301_2752)">
<path d="M446 0H0V446H446V0Z" fill="black"/>
</g>
<path d="M21.7561 21.7561V97.9024H97.9024V21.7561H21.7561ZM87.0244 87.0244H32.6342V32.6341H87.0244V87.0244Z" fill="black"/>
<path d="M348.098 21.7561V97.9024H424.244V21.7561H348.098ZM413.366 87.0244H358.976V32.6341H413.366V87.0244Z" fill="black"/>
<path d="M21.7561 348.098V424.244H97.9024V348.098H21.7561ZM87.0244 413.366H32.6342V358.976H87.0244V413.366Z" fill="black"/>
<path d="M76.1463 43.5122H43.5122V76.1463H76.1463V43.5122Z" fill="black"/>
<path d="M402.488 43.5122H369.854V76.1463H402.488V43.5122Z" fill="black"/>
<path d="M76.1463 369.854H43.5122V402.488H76.1463V369.854Z" fill="black"/>
</svg>
