<svg width="50" height="50" viewBox="0 0 50 58" fill="none" xmlns="http://www.w3.org/2000/svg">
<path d="M34.4375 43.5V40.7813C34.4375 37.4961 38.0104 34.3888 40.3281 32.1719C43.5952 29.0487 45.3125 24.8528 45.3125 19.9375C45.3125 10.875 38.0931 3.625 29 3.625C26.8561 3.61902 24.7322 4.03688 22.7504 4.85454C20.7686 5.6722 18.9679 6.87354 17.452 8.38949C15.936 9.90544 14.7347 11.7061 13.917 13.6879C13.0994 15.6697 12.6815 17.7936 12.6875 19.9375C12.6875 24.6772 14.4785 29.1575 17.6719 32.1719C19.9772 34.348 23.5625 37.4621 23.5625 40.7813V43.5M25.375 54.375H32.625M23.5625 48.9375H34.4375M29 43.5V29" stroke="#F22B29" stroke-width="2" stroke-linecap="round" stroke-linejoin="round"/>
<path d="M33.3047 27.1875C33.3047 27.1875 30.868 29 29 29C27.132 29 24.6953 27.1875 24.6953 27.1875" stroke="#F22B29" stroke-width="2" stroke-linecap="round" stroke-linejoin="round"/>
</svg>
