<svg width="508" height="508" viewBox="0 0 508 508" fill="none" xmlns="http://www.w3.org/2000/svg">
<mask id="mask0_301_3986" style="mask-type:luminance" maskUnits="userSpaceOnUse" x="27" y="27" width="454" height="454">
<path d="M151.027 27.4595H137.297V41.1892H151.027V27.4595Z" fill="white"/>
<path d="M178.486 27.4595H164.757V41.1892H178.486V27.4595Z" fill="white"/>
<path d="M219.676 27.4595H205.946V41.1892H219.676V27.4595Z" fill="white"/>
<path d="M247.135 27.4595H233.405V41.1892H247.135V27.4595Z" fill="white"/>
<path d="M288.324 27.4595H274.595V41.1892H288.324V27.4595Z" fill="white"/>
<path d="M315.784 27.4595H302.054V41.1892H315.784V27.4595Z" fill="white"/>
<path d="M329.513 27.4595H315.784V41.1892H329.513V27.4595Z" fill="white"/>
<path d="M356.973 27.4595H343.243V41.1892H356.973V27.4595Z" fill="white"/>
<path d="M370.703 27.4595H356.973V41.1892H370.703V27.4595Z" fill="white"/>
<path d="M151.027 41.1892H137.297V54.9189H151.027V41.1892Z" fill="white"/>
<path d="M164.757 41.1892H151.027V54.9189H164.757V41.1892Z" fill="white"/>
<path d="M178.486 41.1892H164.757V54.9189H178.486V41.1892Z" fill="white"/>
<path d="M192.216 41.1892H178.486V54.9189H192.216V41.1892Z" fill="white"/>
<path d="M205.946 41.1892H192.216V54.9189H205.946V41.1892Z" fill="white"/>
<path d="M274.595 41.1892H260.865V54.9189H274.595V41.1892Z" fill="white"/>
<path d="M288.324 41.1892H274.595V54.9189H288.324V41.1892Z" fill="white"/>
<path d="M329.513 41.1892H315.784V54.9189H329.513V41.1892Z" fill="white"/>
<path d="M343.243 41.1892H329.514V54.9189H343.243V41.1892Z" fill="white"/>
<path d="M370.703 41.1892H356.973V54.9189H370.703V41.1892Z" fill="white"/>
<path d="M151.027 54.9189H137.297V68.6486H151.027V54.9189Z" fill="white"/>
<path d="M233.405 54.9189H219.676V68.6486H233.405V54.9189Z" fill="white"/>
<path d="M247.135 54.9189H233.405V68.6486H247.135V54.9189Z" fill="white"/>
<path d="M260.865 54.9189H247.135V68.6486H260.865V54.9189Z" fill="white"/>
<path d="M274.595 54.9189H260.865V68.6486H274.595V54.9189Z" fill="white"/>
<path d="M329.513 54.9189H315.784V68.6486H329.513V54.9189Z" fill="white"/>
<path d="M343.243 54.9189H329.514V68.6486H343.243V54.9189Z" fill="white"/>
<path d="M356.973 54.9189H343.243V68.6486H356.973V54.9189Z" fill="white"/>
<path d="M370.703 54.9189H356.973V68.6486H370.703V54.9189Z" fill="white"/>
<path d="M178.486 68.6486H164.757V82.3784H178.486V68.6486Z" fill="white"/>
<path d="M205.946 68.6486H192.216V82.3784H205.946V68.6486Z" fill="white"/>
<path d="M219.676 68.6486H205.946V82.3784H219.676V68.6486Z" fill="white"/>
<path d="M233.405 68.6486H219.676V82.3784H233.405V68.6486Z" fill="white"/>
<path d="M274.595 68.6486H260.865V82.3784H274.595V68.6486Z" fill="white"/>
<path d="M288.324 68.6486H274.595V82.3784H288.324V68.6486Z" fill="white"/>
<path d="M315.784 68.6486H302.054V82.3784H315.784V68.6486Z" fill="white"/>
<path d="M343.243 68.6486H329.514V82.3784H343.243V68.6486Z" fill="white"/>
<path d="M356.973 68.6486H343.243V82.3784H356.973V68.6486Z" fill="white"/>
<path d="M370.703 68.6486H356.973V82.3784H370.703V68.6486Z" fill="white"/>
<path d="M164.757 82.3784H151.027V96.1081H164.757V82.3784Z" fill="white"/>
<path d="M192.216 82.3784H178.486V96.1081H192.216V82.3784Z" fill="white"/>
<path d="M233.405 82.3784H219.676V96.1081H233.405V82.3784Z" fill="white"/>
<path d="M274.595 82.3784H260.865V96.1081H274.595V82.3784Z" fill="white"/>
<path d="M288.324 82.3784H274.595V96.1081H288.324V82.3784Z" fill="white"/>
<path d="M151.027 96.1081H137.297V109.838H151.027V96.1081Z" fill="white"/>
<path d="M178.486 96.1081H164.757V109.838H178.486V96.1081Z" fill="white"/>
<path d="M205.946 96.1081H192.216V109.838H205.946V96.1081Z" fill="white"/>
<path d="M219.676 96.1081H205.946V109.838H219.676V96.1081Z" fill="white"/>
<path d="M288.324 96.1081H274.595V109.838H288.324V96.1081Z" fill="white"/>
<path d="M302.054 96.1081H288.324V109.838H302.054V96.1081Z" fill="white"/>
<path d="M315.784 96.1081H302.054V109.838H315.784V96.1081Z" fill="white"/>
<path d="M343.243 96.1081H329.514V109.838H343.243V96.1081Z" fill="white"/>
<path d="M356.973 96.1081H343.243V109.838H356.973V96.1081Z" fill="white"/>
<path d="M370.703 96.1081H356.973V109.838H370.703V96.1081Z" fill="white"/>
<path d="M151.027 109.838H137.297V123.568H151.027V109.838Z" fill="white"/>
<path d="M178.486 109.838H164.757V123.568H178.486V109.838Z" fill="white"/>
<path d="M205.946 109.838H192.216V123.568H205.946V109.838Z" fill="white"/>
<path d="M233.405 109.838H219.676V123.568H233.405V109.838Z" fill="white"/>
<path d="M260.865 109.838H247.135V123.568H260.865V109.838Z" fill="white"/>
<path d="M288.324 109.838H274.595V123.568H288.324V109.838Z" fill="white"/>
<path d="M315.784 109.838H302.054V123.568H315.784V109.838Z" fill="white"/>
<path d="M343.243 109.838H329.514V123.568H343.243V109.838Z" fill="white"/>
<path d="M370.703 109.838H356.973V123.568H370.703V109.838Z" fill="white"/>
<path d="M151.027 123.568H137.297V137.297H151.027V123.568Z" fill="white"/>
<path d="M178.486 123.568H164.757V137.297H178.486V123.568Z" fill="white"/>
<path d="M219.676 123.568H205.946V137.297H219.676V123.568Z" fill="white"/>
<path d="M247.135 123.568H233.405V137.297H247.135V123.568Z" fill="white"/>
<path d="M260.865 123.568H247.135V137.297H260.865V123.568Z" fill="white"/>
<path d="M315.784 123.568H302.054V137.297H315.784V123.568Z" fill="white"/>
<path d="M329.513 123.568H315.784V137.297H329.513V123.568Z" fill="white"/>
<path d="M356.973 123.568H343.243V137.297H356.973V123.568Z" fill="white"/>
<path d="M68.6486 137.297H54.9189V151.027H68.6486V137.297Z" fill="white"/>
<path d="M82.3784 137.297H68.6487V151.027H82.3784V137.297Z" fill="white"/>
<path d="M96.1081 137.297H82.3784V151.027H96.1081V137.297Z" fill="white"/>
<path d="M123.568 137.297H109.838V151.027H123.568V137.297Z" fill="white"/>
<path d="M151.027 137.297H137.297V151.027H151.027V137.297Z" fill="white"/>
<path d="M164.757 137.297H151.027V151.027H164.757V137.297Z" fill="white"/>
<path d="M178.486 137.297H164.757V151.027H178.486V137.297Z" fill="white"/>
<path d="M192.216 137.297H178.486V151.027H192.216V137.297Z" fill="white"/>
<path d="M219.676 137.297H205.946V151.027H219.676V137.297Z" fill="white"/>
<path d="M260.865 137.297H247.135V151.027H260.865V137.297Z" fill="white"/>
<path d="M274.595 137.297H260.865V151.027H274.595V137.297Z" fill="white"/>
<path d="M302.054 137.297H288.324V151.027H302.054V137.297Z" fill="white"/>
<path d="M315.784 137.297H302.054V151.027H315.784V137.297Z" fill="white"/>
<path d="M343.243 137.297H329.514V151.027H343.243V137.297Z" fill="white"/>
<path d="M356.973 137.297H343.243V151.027H356.973V137.297Z" fill="white"/>
<path d="M370.703 137.297H356.973V151.027H370.703V137.297Z" fill="white"/>
<path d="M384.432 137.297H370.703V151.027H384.432V137.297Z" fill="white"/>
<path d="M398.162 137.297H384.432V151.027H398.162V137.297Z" fill="white"/>
<path d="M411.892 137.297H398.162V151.027H411.892V137.297Z" fill="white"/>
<path d="M453.081 137.297H439.351V151.027H453.081V137.297Z" fill="white"/>
<path d="M466.811 137.297H453.081V151.027H466.811V137.297Z" fill="white"/>
<path d="M480.541 137.297H466.811V151.027H480.541V137.297Z" fill="white"/>
<path d="M96.1081 151.027H82.3784V164.757H96.1081V151.027Z" fill="white"/>
<path d="M109.838 151.027H96.1081V164.757H109.838V151.027Z" fill="white"/>
<path d="M164.757 151.027H151.027V164.757H164.757V151.027Z" fill="white"/>
<path d="M205.946 151.027H192.216V164.757H205.946V151.027Z" fill="white"/>
<path d="M233.405 151.027H219.676V164.757H233.405V151.027Z" fill="white"/>
<path d="M247.135 151.027H233.405V164.757H247.135V151.027Z" fill="white"/>
<path d="M274.595 151.027H260.865V164.757H274.595V151.027Z" fill="white"/>
<path d="M288.324 151.027H274.595V164.757H288.324V151.027Z" fill="white"/>
<path d="M302.054 151.027H288.324V164.757H302.054V151.027Z" fill="white"/>
<path d="M329.513 151.027H315.784V164.757H329.513V151.027Z" fill="white"/>
<path d="M356.973 151.027H343.243V164.757H356.973V151.027Z" fill="white"/>
<path d="M370.703 151.027H356.973V164.757H370.703V151.027Z" fill="white"/>
<path d="M384.432 151.027H370.703V164.757H384.432V151.027Z" fill="white"/>
<path d="M398.162 151.027H384.432V164.757H398.162V151.027Z" fill="white"/>
<path d="M439.351 151.027H425.622V164.757H439.351V151.027Z" fill="white"/>
<path d="M453.081 151.027H439.351V164.757H453.081V151.027Z" fill="white"/>
<path d="M466.811 151.027H453.081V164.757H466.811V151.027Z" fill="white"/>
<path d="M480.541 151.027H466.811V164.757H480.541V151.027Z" fill="white"/>
<path d="M54.9189 164.757H41.1892V178.486H54.9189V164.757Z" fill="white"/>
<path d="M68.6486 164.757H54.9189V178.486H68.6486V164.757Z" fill="white"/>
<path d="M109.838 164.757H96.1081V178.486H109.838V164.757Z" fill="white"/>
<path d="M123.568 164.757H109.838V178.486H123.568V164.757Z" fill="white"/>
<path d="M164.757 164.757H151.027V178.486H164.757V164.757Z" fill="white"/>
<path d="M233.405 164.757H219.676V178.486H233.405V164.757Z" fill="white"/>
<path d="M247.135 164.757H233.405V178.486H247.135V164.757Z" fill="white"/>
<path d="M260.865 164.757H247.135V178.486H260.865V164.757Z" fill="white"/>
<path d="M288.324 164.757H274.595V178.486H288.324V164.757Z" fill="white"/>
<path d="M315.784 164.757H302.054V178.486H315.784V164.757Z" fill="white"/>
<path d="M329.513 164.757H315.784V178.486H329.513V164.757Z" fill="white"/>
<path d="M384.432 164.757H370.703V178.486H384.432V164.757Z" fill="white"/>
<path d="M398.162 164.757H384.432V178.486H398.162V164.757Z" fill="white"/>
<path d="M411.892 164.757H398.162V178.486H411.892V164.757Z" fill="white"/>
<path d="M453.081 164.757H439.351V178.486H453.081V164.757Z" fill="white"/>
<path d="M466.811 164.757H453.081V178.486H466.811V164.757Z" fill="white"/>
<path d="M54.9189 178.486H41.1892V192.216H54.9189V178.486Z" fill="white"/>
<path d="M68.6486 178.486H54.9189V192.216H68.6486V178.486Z" fill="white"/>
<path d="M96.1081 178.486H82.3784V192.216H96.1081V178.486Z" fill="white"/>
<path d="M109.838 178.486H96.1081V192.216H109.838V178.486Z" fill="white"/>
<path d="M137.297 178.486H123.568V192.216H137.297V178.486Z" fill="white"/>
<path d="M151.027 178.486H137.297V192.216H151.027V178.486Z" fill="white"/>
<path d="M164.757 178.486H151.027V192.216H164.757V178.486Z" fill="white"/>
<path d="M178.486 178.486H164.757V192.216H178.486V178.486Z" fill="white"/>
<path d="M192.216 178.486H178.486V192.216H192.216V178.486Z" fill="white"/>
<path d="M205.946 178.486H192.216V192.216H205.946V178.486Z" fill="white"/>
<path d="M219.676 178.486H205.946V192.216H219.676V178.486Z" fill="white"/>
<path d="M260.865 178.486H247.135V192.216H260.865V178.486Z" fill="white"/>
<path d="M329.513 178.486H315.784V192.216H329.513V178.486Z" fill="white"/>
<path d="M343.243 178.486H329.514V192.216H343.243V178.486Z" fill="white"/>
<path d="M370.703 178.486H356.973V192.216H370.703V178.486Z" fill="white"/>
<path d="M398.162 178.486H384.432V192.216H398.162V178.486Z" fill="white"/>
<path d="M439.351 178.486H425.622V192.216H439.351V178.486Z" fill="white"/>
<path d="M453.081 178.486H439.351V192.216H453.081V178.486Z" fill="white"/>
<path d="M466.811 178.486H453.081V192.216H466.811V178.486Z" fill="white"/>
<path d="M480.541 178.486H466.811V192.216H480.541V178.486Z" fill="white"/>
<path d="M54.9189 192.216H41.1892V205.946H54.9189V192.216Z" fill="white"/>
<path d="M82.3784 192.216H68.6487V205.946H82.3784V192.216Z" fill="white"/>
<path d="M109.838 192.216H96.1081V205.946H109.838V192.216Z" fill="white"/>
<path d="M123.568 192.216H109.838V205.946H123.568V192.216Z" fill="white"/>
<path d="M151.027 192.216H137.297V205.946H151.027V192.216Z" fill="white"/>
<path d="M178.486 192.216H164.757V205.946H178.486V192.216Z" fill="white"/>
<path d="M192.216 192.216H178.486V205.946H192.216V192.216Z" fill="white"/>
<path d="M247.135 192.216H233.405V205.946H247.135V192.216Z" fill="white"/>
<path d="M288.324 192.216H274.595V205.946H288.324V192.216Z" fill="white"/>
<path d="M329.513 192.216H315.784V205.946H329.513V192.216Z" fill="white"/>
<path d="M370.703 192.216H356.973V205.946H370.703V192.216Z" fill="white"/>
<path d="M384.432 192.216H370.703V205.946H384.432V192.216Z" fill="white"/>
<path d="M425.622 192.216H411.892V205.946H425.622V192.216Z" fill="white"/>
<path d="M466.811 192.216H453.081V205.946H466.811V192.216Z" fill="white"/>
<path d="M41.1892 205.946H27.4595V219.676H41.1892V205.946Z" fill="white"/>
<path d="M68.6486 205.946H54.9189V219.676H68.6486V205.946Z" fill="white"/>
<path d="M137.297 205.946H123.568V219.676H137.297V205.946Z" fill="white"/>
<path d="M164.757 205.946H151.027V219.676H164.757V205.946Z" fill="white"/>
<path d="M205.946 205.946H192.216V219.676H205.946V205.946Z" fill="white"/>
<path d="M219.676 205.946H205.946V219.676H219.676V205.946Z" fill="white"/>
<path d="M260.865 205.946H247.135V219.676H260.865V205.946Z" fill="white"/>
<path d="M315.784 205.946H302.054V219.676H315.784V205.946Z" fill="white"/>
<path d="M343.243 205.946H329.514V219.676H343.243V205.946Z" fill="white"/>
<path d="M356.973 205.946H343.243V219.676H356.973V205.946Z" fill="white"/>
<path d="M398.162 205.946H384.432V219.676H398.162V205.946Z" fill="white"/>
<path d="M439.351 205.946H425.622V219.676H439.351V205.946Z" fill="white"/>
<path d="M480.541 205.946H466.811V219.676H480.541V205.946Z" fill="white"/>
<path d="M41.1892 219.676H27.4595V233.405H41.1892V219.676Z" fill="white"/>
<path d="M54.9189 219.676H41.1892V233.405H54.9189V219.676Z" fill="white"/>
<path d="M82.3784 219.676H68.6487V233.405H82.3784V219.676Z" fill="white"/>
<path d="M123.568 219.676H109.838V233.405H123.568V219.676Z" fill="white"/>
<path d="M137.297 219.676H123.568V233.405H137.297V219.676Z" fill="white"/>
<path d="M205.946 219.676H192.216V233.405H205.946V219.676Z" fill="white"/>
<path d="M219.676 219.676H205.946V233.405H219.676V219.676Z" fill="white"/>
<path d="M233.405 219.676H219.676V233.405H233.405V219.676Z" fill="white"/>
<path d="M260.865 219.676H247.135V233.405H260.865V219.676Z" fill="white"/>
<path d="M288.324 219.676H274.595V233.405H288.324V219.676Z" fill="white"/>
<path d="M302.054 219.676H288.324V233.405H302.054V219.676Z" fill="white"/>
<path d="M343.243 219.676H329.514V233.405H343.243V219.676Z" fill="white"/>
<path d="M370.703 219.676H356.973V233.405H370.703V219.676Z" fill="white"/>
<path d="M411.892 219.676H398.162V233.405H411.892V219.676Z" fill="white"/>
<path d="M425.622 219.676H411.892V233.405H425.622V219.676Z" fill="white"/>
<path d="M439.351 219.676H425.622V233.405H439.351V219.676Z" fill="white"/>
<path d="M453.081 219.676H439.351V233.405H453.081V219.676Z" fill="white"/>
<path d="M466.811 219.676H453.081V233.405H466.811V219.676Z" fill="white"/>
<path d="M41.1892 233.405H27.4595V247.135H41.1892V233.405Z" fill="white"/>
<path d="M82.3784 233.405H68.6487V247.135H82.3784V233.405Z" fill="white"/>
<path d="M109.838 233.405H96.1081V247.135H109.838V233.405Z" fill="white"/>
<path d="M137.297 233.405H123.568V247.135H137.297V233.405Z" fill="white"/>
<path d="M164.757 233.405H151.027V247.135H164.757V233.405Z" fill="white"/>
<path d="M178.486 233.405H164.757V247.135H178.486V233.405Z" fill="white"/>
<path d="M219.676 233.405H205.946V247.135H219.676V233.405Z" fill="white"/>
<path d="M233.405 233.405H219.676V247.135H233.405V233.405Z" fill="white"/>
<path d="M260.865 233.405H247.135V247.135H260.865V233.405Z" fill="white"/>
<path d="M274.595 233.405H260.865V247.135H274.595V233.405Z" fill="white"/>
<path d="M329.513 233.405H315.784V247.135H329.513V233.405Z" fill="white"/>
<path d="M343.243 233.405H329.514V247.135H343.243V233.405Z" fill="white"/>
<path d="M384.432 233.405H370.703V247.135H384.432V233.405Z" fill="white"/>
<path d="M411.892 233.405H398.162V247.135H411.892V233.405Z" fill="white"/>
<path d="M453.081 233.405H439.351V247.135H453.081V233.405Z" fill="white"/>
<path d="M466.811 233.405H453.081V247.135H466.811V233.405Z" fill="white"/>
<path d="M480.541 233.405H466.811V247.135H480.541V233.405Z" fill="white"/>
<path d="M41.1892 247.135H27.4595V260.865H41.1892V247.135Z" fill="white"/>
<path d="M54.9189 247.135H41.1892V260.865H54.9189V247.135Z" fill="white"/>
<path d="M82.3784 247.135H68.6487V260.865H82.3784V247.135Z" fill="white"/>
<path d="M123.568 247.135H109.838V260.865H123.568V247.135Z" fill="white"/>
<path d="M205.946 247.135H192.216V260.865H205.946V247.135Z" fill="white"/>
<path d="M247.135 247.135H233.405V260.865H247.135V247.135Z" fill="white"/>
<path d="M302.054 247.135H288.324V260.865H302.054V247.135Z" fill="white"/>
<path d="M384.432 247.135H370.703V260.865H384.432V247.135Z" fill="white"/>
<path d="M411.892 247.135H398.162V260.865H411.892V247.135Z" fill="white"/>
<path d="M425.622 247.135H411.892V260.865H425.622V247.135Z" fill="white"/>
<path d="M466.811 247.135H453.081V260.865H466.811V247.135Z" fill="white"/>
<path d="M480.541 247.135H466.811V260.865H480.541V247.135Z" fill="white"/>
<path d="M41.1892 260.865H27.4595V274.595H41.1892V260.865Z" fill="white"/>
<path d="M68.6486 260.865H54.9189V274.595H68.6486V260.865Z" fill="white"/>
<path d="M82.3784 260.865H68.6487V274.595H82.3784V260.865Z" fill="white"/>
<path d="M96.1081 260.865H82.3784V274.595H96.1081V260.865Z" fill="white"/>
<path d="M109.838 260.865H96.1081V274.595H109.838V260.865Z" fill="white"/>
<path d="M137.297 260.865H123.568V274.595H137.297V260.865Z" fill="white"/>
<path d="M151.027 260.865H137.297V274.595H151.027V260.865Z" fill="white"/>
<path d="M205.946 260.865H192.216V274.595H205.946V260.865Z" fill="white"/>
<path d="M233.405 260.865H219.676V274.595H233.405V260.865Z" fill="white"/>
<path d="M260.865 260.865H247.135V274.595H260.865V260.865Z" fill="white"/>
<path d="M274.595 260.865H260.865V274.595H274.595V260.865Z" fill="white"/>
<path d="M302.054 260.865H288.324V274.595H302.054V260.865Z" fill="white"/>
<path d="M315.784 260.865H302.054V274.595H315.784V260.865Z" fill="white"/>
<path d="M329.513 260.865H315.784V274.595H329.513V260.865Z" fill="white"/>
<path d="M356.973 260.865H343.243V274.595H356.973V260.865Z" fill="white"/>
<path d="M370.703 260.865H356.973V274.595H370.703V260.865Z" fill="white"/>
<path d="M398.162 260.865H384.432V274.595H398.162V260.865Z" fill="white"/>
<path d="M480.541 260.865H466.811V274.595H480.541V260.865Z" fill="white"/>
<path d="M82.3784 274.595H68.6487V288.324H82.3784V274.595Z" fill="white"/>
<path d="M123.568 274.595H109.838V288.324H123.568V274.595Z" fill="white"/>
<path d="M164.757 274.595H151.027V288.324H164.757V274.595Z" fill="white"/>
<path d="M192.216 274.595H178.486V288.324H192.216V274.595Z" fill="white"/>
<path d="M205.946 274.595H192.216V288.324H205.946V274.595Z" fill="white"/>
<path d="M247.135 274.595H233.405V288.324H247.135V274.595Z" fill="white"/>
<path d="M260.865 274.595H247.135V288.324H260.865V274.595Z" fill="white"/>
<path d="M274.595 274.595H260.865V288.324H274.595V274.595Z" fill="white"/>
<path d="M315.784 274.595H302.054V288.324H315.784V274.595Z" fill="white"/>
<path d="M411.892 274.595H398.162V288.324H411.892V274.595Z" fill="white"/>
<path d="M425.622 274.595H411.892V288.324H425.622V274.595Z" fill="white"/>
<path d="M453.081 274.595H439.351V288.324H453.081V274.595Z" fill="white"/>
<path d="M466.811 274.595H453.081V288.324H466.811V274.595Z" fill="white"/>
<path d="M41.1892 288.324H27.4595V302.054H41.1892V288.324Z" fill="white"/>
<path d="M54.9189 288.324H41.1892V302.054H54.9189V288.324Z" fill="white"/>
<path d="M68.6486 288.324H54.9189V302.054H68.6486V288.324Z" fill="white"/>
<path d="M82.3784 288.324H68.6487V302.054H82.3784V288.324Z" fill="white"/>
<path d="M96.1081 288.324H82.3784V302.054H96.1081V288.324Z" fill="white"/>
<path d="M137.297 288.324H123.568V302.054H137.297V288.324Z" fill="white"/>
<path d="M151.027 288.324H137.297V302.054H151.027V288.324Z" fill="white"/>
<path d="M164.757 288.324H151.027V302.054H164.757V288.324Z" fill="white"/>
<path d="M178.486 288.324H164.757V302.054H178.486V288.324Z" fill="white"/>
<path d="M192.216 288.324H178.486V302.054H192.216V288.324Z" fill="white"/>
<path d="M205.946 288.324H192.216V302.054H205.946V288.324Z" fill="white"/>
<path d="M219.676 288.324H205.946V302.054H219.676V288.324Z" fill="white"/>
<path d="M247.135 288.324H233.405V302.054H247.135V288.324Z" fill="white"/>
<path d="M274.595 288.324H260.865V302.054H274.595V288.324Z" fill="white"/>
<path d="M302.054 288.324H288.324V302.054H302.054V288.324Z" fill="white"/>
<path d="M315.784 288.324H302.054V302.054H315.784V288.324Z" fill="white"/>
<path d="M329.513 288.324H315.784V302.054H329.513V288.324Z" fill="white"/>
<path d="M343.243 288.324H329.514V302.054H343.243V288.324Z" fill="white"/>
<path d="M356.973 288.324H343.243V302.054H356.973V288.324Z" fill="white"/>
<path d="M370.703 288.324H356.973V302.054H370.703V288.324Z" fill="white"/>
<path d="M398.162 288.324H384.432V302.054H398.162V288.324Z" fill="white"/>
<path d="M411.892 288.324H398.162V302.054H411.892V288.324Z" fill="white"/>
<path d="M439.351 288.324H425.622V302.054H439.351V288.324Z" fill="white"/>
<path d="M453.081 288.324H439.351V302.054H453.081V288.324Z" fill="white"/>
<path d="M466.811 288.324H453.081V302.054H466.811V288.324Z" fill="white"/>
<path d="M480.541 288.324H466.811V302.054H480.541V288.324Z" fill="white"/>
<path d="M82.3784 302.054H68.6487V315.784H82.3784V302.054Z" fill="white"/>
<path d="M123.568 302.054H109.838V315.784H123.568V302.054Z" fill="white"/>
<path d="M137.297 302.054H123.568V315.784H137.297V302.054Z" fill="white"/>
<path d="M219.676 302.054H205.946V315.784H219.676V302.054Z" fill="white"/>
<path d="M247.135 302.054H233.405V315.784H247.135V302.054Z" fill="white"/>
<path d="M288.324 302.054H274.595V315.784H288.324V302.054Z" fill="white"/>
<path d="M302.054 302.054H288.324V315.784H302.054V302.054Z" fill="white"/>
<path d="M315.784 302.054H302.054V315.784H315.784V302.054Z" fill="white"/>
<path d="M343.243 302.054H329.514V315.784H343.243V302.054Z" fill="white"/>
<path d="M370.703 302.054H356.973V315.784H370.703V302.054Z" fill="white"/>
<path d="M411.892 302.054H398.162V315.784H411.892V302.054Z" fill="white"/>
<path d="M425.622 302.054H411.892V315.784H425.622V302.054Z" fill="white"/>
<path d="M439.351 302.054H425.622V315.784H439.351V302.054Z" fill="white"/>
<path d="M466.811 302.054H453.081V315.784H466.811V302.054Z" fill="white"/>
<path d="M480.541 302.054H466.811V315.784H480.541V302.054Z" fill="white"/>
<path d="M41.1892 315.784H27.4595V329.513H41.1892V315.784Z" fill="white"/>
<path d="M54.9189 315.784H41.1892V329.513H54.9189V315.784Z" fill="white"/>
<path d="M68.6486 315.784H54.9189V329.513H68.6486V315.784Z" fill="white"/>
<path d="M109.838 315.784H96.1081V329.513H109.838V315.784Z" fill="white"/>
<path d="M137.297 315.784H123.568V329.513H137.297V315.784Z" fill="white"/>
<path d="M151.027 315.784H137.297V329.513H151.027V315.784Z" fill="white"/>
<path d="M192.216 315.784H178.486V329.513H192.216V315.784Z" fill="white"/>
<path d="M205.946 315.784H192.216V329.513H205.946V315.784Z" fill="white"/>
<path d="M219.676 315.784H205.946V329.513H219.676V315.784Z" fill="white"/>
<path d="M233.405 315.784H219.676V329.513H233.405V315.784Z" fill="white"/>
<path d="M274.595 315.784H260.865V329.513H274.595V315.784Z" fill="white"/>
<path d="M302.054 315.784H288.324V329.513H302.054V315.784Z" fill="white"/>
<path d="M315.784 315.784H302.054V329.513H315.784V315.784Z" fill="white"/>
<path d="M329.513 315.784H315.784V329.513H329.513V315.784Z" fill="white"/>
<path d="M370.703 315.784H356.973V329.513H370.703V315.784Z" fill="white"/>
<path d="M398.162 315.784H384.432V329.513H398.162V315.784Z" fill="white"/>
<path d="M411.892 315.784H398.162V329.513H411.892V315.784Z" fill="white"/>
<path d="M439.351 315.784H425.622V329.513H439.351V315.784Z" fill="white"/>
<path d="M453.081 315.784H439.351V329.513H453.081V315.784Z" fill="white"/>
<path d="M466.811 315.784H453.081V329.513H466.811V315.784Z" fill="white"/>
<path d="M480.541 315.784H466.811V329.513H480.541V315.784Z" fill="white"/>
<path d="M41.1892 329.514H27.4595V343.243H41.1892V329.514Z" fill="white"/>
<path d="M68.6486 329.514H54.9189V343.243H68.6486V329.514Z" fill="white"/>
<path d="M109.838 329.514H96.1081V343.243H109.838V329.514Z" fill="white"/>
<path d="M123.568 329.514H109.838V343.243H123.568V329.514Z" fill="white"/>
<path d="M137.297 329.514H123.568V343.243H137.297V329.514Z" fill="white"/>
<path d="M151.027 329.514H137.297V343.243H151.027V329.514Z" fill="white"/>
<path d="M164.757 329.514H151.027V343.243H164.757V329.514Z" fill="white"/>
<path d="M192.216 329.514H178.486V343.243H192.216V329.514Z" fill="white"/>
<path d="M219.676 329.514H205.946V343.243H219.676V329.514Z" fill="white"/>
<path d="M425.622 329.514H411.892V343.243H425.622V329.514Z" fill="white"/>
<path d="M439.351 329.514H425.622V343.243H439.351V329.514Z" fill="white"/>
<path d="M466.811 329.514H453.081V343.243H466.811V329.514Z" fill="white"/>
<path d="M41.1892 343.243H27.4595V356.973H41.1892V343.243Z" fill="white"/>
<path d="M68.6486 343.243H54.9189V356.973H68.6486V343.243Z" fill="white"/>
<path d="M82.3784 343.243H68.6487V356.973H82.3784V343.243Z" fill="white"/>
<path d="M96.1081 343.243H82.3784V356.973H96.1081V343.243Z" fill="white"/>
<path d="M109.838 343.243H96.1081V356.973H109.838V343.243Z" fill="white"/>
<path d="M137.297 343.243H123.568V356.973H137.297V343.243Z" fill="white"/>
<path d="M164.757 343.243H151.027V356.973H164.757V343.243Z" fill="white"/>
<path d="M192.216 343.243H178.486V356.973H192.216V343.243Z" fill="white"/>
<path d="M205.946 343.243H192.216V356.973H205.946V343.243Z" fill="white"/>
<path d="M233.405 343.243H219.676V356.973H233.405V343.243Z" fill="white"/>
<path d="M247.135 343.243H233.405V356.973H247.135V343.243Z" fill="white"/>
<path d="M302.054 343.243H288.324V356.973H302.054V343.243Z" fill="white"/>
<path d="M315.784 343.243H302.054V356.973H315.784V343.243Z" fill="white"/>
<path d="M329.513 343.243H315.784V356.973H329.513V343.243Z" fill="white"/>
<path d="M343.243 343.243H329.514V356.973H343.243V343.243Z" fill="white"/>
<path d="M356.973 343.243H343.243V356.973H356.973V343.243Z" fill="white"/>
<path d="M439.351 343.243H425.622V356.973H439.351V343.243Z" fill="white"/>
<path d="M453.081 343.243H439.351V356.973H453.081V343.243Z" fill="white"/>
<path d="M466.811 343.243H453.081V356.973H466.811V343.243Z" fill="white"/>
<path d="M41.1892 356.973H27.4595V370.703H41.1892V356.973Z" fill="white"/>
<path d="M123.568 356.973H109.838V370.703H123.568V356.973Z" fill="white"/>
<path d="M164.757 356.973H151.027V370.703H164.757V356.973Z" fill="white"/>
<path d="M178.486 356.973H164.757V370.703H178.486V356.973Z" fill="white"/>
<path d="M233.405 356.973H219.676V370.703H233.405V356.973Z" fill="white"/>
<path d="M247.135 356.973H233.405V370.703H247.135V356.973Z" fill="white"/>
<path d="M260.865 356.973H247.135V370.703H260.865V356.973Z" fill="white"/>
<path d="M288.324 356.973H274.595V370.703H288.324V356.973Z" fill="white"/>
<path d="M302.054 356.973H288.324V370.703H302.054V356.973Z" fill="white"/>
<path d="M343.243 356.973H329.514V370.703H343.243V356.973Z" fill="white"/>
<path d="M356.973 356.973H343.243V370.703H356.973V356.973Z" fill="white"/>
<path d="M370.703 356.973H356.973V370.703H370.703V356.973Z" fill="white"/>
<path d="M384.432 356.973H370.703V370.703H384.432V356.973Z" fill="white"/>
<path d="M398.162 356.973H384.432V370.703H398.162V356.973Z" fill="white"/>
<path d="M411.892 356.973H398.162V370.703H411.892V356.973Z" fill="white"/>
<path d="M425.622 356.973H411.892V370.703H425.622V356.973Z" fill="white"/>
<path d="M439.351 356.973H425.622V370.703H439.351V356.973Z" fill="white"/>
<path d="M151.027 370.703H137.297V384.432H151.027V370.703Z" fill="white"/>
<path d="M164.757 370.703H151.027V384.432H164.757V370.703Z" fill="white"/>
<path d="M260.865 370.703H247.135V384.432H260.865V370.703Z" fill="white"/>
<path d="M288.324 370.703H274.595V384.432H288.324V370.703Z" fill="white"/>
<path d="M302.054 370.703H288.324V384.432H302.054V370.703Z" fill="white"/>
<path d="M370.703 370.703H356.973V384.432H370.703V370.703Z" fill="white"/>
<path d="M425.622 370.703H411.892V384.432H425.622V370.703Z" fill="white"/>
<path d="M466.811 370.703H453.081V384.432H466.811V370.703Z" fill="white"/>
<path d="M480.541 370.703H466.811V384.432H480.541V370.703Z" fill="white"/>
<path d="M164.757 384.432H151.027V398.162H164.757V384.432Z" fill="white"/>
<path d="M192.216 384.432H178.486V398.162H192.216V384.432Z" fill="white"/>
<path d="M219.676 384.432H205.946V398.162H219.676V384.432Z" fill="white"/>
<path d="M233.405 384.432H219.676V398.162H233.405V384.432Z" fill="white"/>
<path d="M288.324 384.432H274.595V398.162H288.324V384.432Z" fill="white"/>
<path d="M315.784 384.432H302.054V398.162H315.784V384.432Z" fill="white"/>
<path d="M343.243 384.432H329.514V398.162H343.243V384.432Z" fill="white"/>
<path d="M356.973 384.432H343.243V398.162H356.973V384.432Z" fill="white"/>
<path d="M370.703 384.432H356.973V398.162H370.703V384.432Z" fill="white"/>
<path d="M398.162 384.432H384.432V398.162H398.162V384.432Z" fill="white"/>
<path d="M425.622 384.432H411.892V398.162H425.622V384.432Z" fill="white"/>
<path d="M439.351 384.432H425.622V398.162H439.351V384.432Z" fill="white"/>
<path d="M453.081 384.432H439.351V398.162H453.081V384.432Z" fill="white"/>
<path d="M466.811 384.432H453.081V398.162H466.811V384.432Z" fill="white"/>
<path d="M164.757 398.162H151.027V411.892H164.757V398.162Z" fill="white"/>
<path d="M219.676 398.162H205.946V411.892H219.676V398.162Z" fill="white"/>
<path d="M233.405 398.162H219.676V411.892H233.405V398.162Z" fill="white"/>
<path d="M288.324 398.162H274.595V411.892H288.324V398.162Z" fill="white"/>
<path d="M302.054 398.162H288.324V411.892H302.054V398.162Z" fill="white"/>
<path d="M356.973 398.162H343.243V411.892H356.973V398.162Z" fill="white"/>
<path d="M370.703 398.162H356.973V411.892H370.703V398.162Z" fill="white"/>
<path d="M425.622 398.162H411.892V411.892H425.622V398.162Z" fill="white"/>
<path d="M439.351 398.162H425.622V411.892H439.351V398.162Z" fill="white"/>
<path d="M453.081 398.162H439.351V411.892H453.081V398.162Z" fill="white"/>
<path d="M466.811 398.162H453.081V411.892H466.811V398.162Z" fill="white"/>
<path d="M480.541 398.162H466.811V411.892H480.541V398.162Z" fill="white"/>
<path d="M151.027 411.892H137.297V425.622H151.027V411.892Z" fill="white"/>
<path d="M164.757 411.892H151.027V425.622H164.757V411.892Z" fill="white"/>
<path d="M192.216 411.892H178.486V425.622H192.216V411.892Z" fill="white"/>
<path d="M219.676 411.892H205.946V425.622H219.676V411.892Z" fill="white"/>
<path d="M274.595 411.892H260.865V425.622H274.595V411.892Z" fill="white"/>
<path d="M302.054 411.892H288.324V425.622H302.054V411.892Z" fill="white"/>
<path d="M315.784 411.892H302.054V425.622H315.784V411.892Z" fill="white"/>
<path d="M329.513 411.892H315.784V425.622H329.513V411.892Z" fill="white"/>
<path d="M343.243 411.892H329.514V425.622H343.243V411.892Z" fill="white"/>
<path d="M370.703 411.892H356.973V425.622H370.703V411.892Z" fill="white"/>
<path d="M384.432 411.892H370.703V425.622H384.432V411.892Z" fill="white"/>
<path d="M398.162 411.892H384.432V425.622H398.162V411.892Z" fill="white"/>
<path d="M411.892 411.892H398.162V425.622H411.892V411.892Z" fill="white"/>
<path d="M425.622 411.892H411.892V425.622H425.622V411.892Z" fill="white"/>
<path d="M466.811 411.892H453.081V425.622H466.811V411.892Z" fill="white"/>
<path d="M480.541 411.892H466.811V425.622H480.541V411.892Z" fill="white"/>
<path d="M151.027 425.622H137.297V439.351H151.027V425.622Z" fill="white"/>
<path d="M178.486 425.622H164.757V439.351H178.486V425.622Z" fill="white"/>
<path d="M219.676 425.622H205.946V439.351H219.676V425.622Z" fill="white"/>
<path d="M247.135 425.622H233.405V439.351H247.135V425.622Z" fill="white"/>
<path d="M288.324 425.622H274.595V439.351H288.324V425.622Z" fill="white"/>
<path d="M315.784 425.622H302.054V439.351H315.784V425.622Z" fill="white"/>
<path d="M356.973 425.622H343.243V439.351H356.973V425.622Z" fill="white"/>
<path d="M370.703 425.622H356.973V439.351H370.703V425.622Z" fill="white"/>
<path d="M384.432 425.622H370.703V439.351H384.432V425.622Z" fill="white"/>
<path d="M425.622 425.622H411.892V439.351H425.622V425.622Z" fill="white"/>
<path d="M439.351 425.622H425.622V439.351H439.351V425.622Z" fill="white"/>
<path d="M466.811 425.622H453.081V439.351H466.811V425.622Z" fill="white"/>
<path d="M151.027 439.351H137.297V453.081H151.027V439.351Z" fill="white"/>
<path d="M178.486 439.351H164.757V453.081H178.486V439.351Z" fill="white"/>
<path d="M192.216 439.351H178.486V453.081H192.216V439.351Z" fill="white"/>
<path d="M205.946 439.351H192.216V453.081H205.946V439.351Z" fill="white"/>
<path d="M233.405 439.351H219.676V453.081H233.405V439.351Z" fill="white"/>
<path d="M274.595 439.351H260.865V453.081H274.595V439.351Z" fill="white"/>
<path d="M288.324 439.351H274.595V453.081H288.324V439.351Z" fill="white"/>
<path d="M329.513 439.351H315.784V453.081H329.513V439.351Z" fill="white"/>
<path d="M384.432 439.351H370.703V453.081H384.432V439.351Z" fill="white"/>
<path d="M398.162 439.351H384.432V453.081H398.162V439.351Z" fill="white"/>
<path d="M164.757 453.081H151.027V466.811H164.757V453.081Z" fill="white"/>
<path d="M192.216 453.081H178.486V466.811H192.216V453.081Z" fill="white"/>
<path d="M219.676 453.081H205.946V466.811H219.676V453.081Z" fill="white"/>
<path d="M233.405 453.081H219.676V466.811H233.405V453.081Z" fill="white"/>
<path d="M247.135 453.081H233.405V466.811H247.135V453.081Z" fill="white"/>
<path d="M274.595 453.081H260.865V466.811H274.595V453.081Z" fill="white"/>
<path d="M288.324 453.081H274.595V466.811H288.324V453.081Z" fill="white"/>
<path d="M302.054 453.081H288.324V466.811H302.054V453.081Z" fill="white"/>
<path d="M315.784 453.081H302.054V466.811H315.784V453.081Z" fill="white"/>
<path d="M343.243 453.081H329.514V466.811H343.243V453.081Z" fill="white"/>
<path d="M356.973 453.081H343.243V466.811H356.973V453.081Z" fill="white"/>
<path d="M384.432 453.081H370.703V466.811H384.432V453.081Z" fill="white"/>
<path d="M411.892 453.081H398.162V466.811H411.892V453.081Z" fill="white"/>
<path d="M439.351 453.081H425.622V466.811H439.351V453.081Z" fill="white"/>
<path d="M453.081 453.081H439.351V466.811H453.081V453.081Z" fill="white"/>
<path d="M178.486 466.811H164.757V480.541H178.486V466.811Z" fill="white"/>
<path d="M205.946 466.811H192.216V480.541H205.946V466.811Z" fill="white"/>
<path d="M233.405 466.811H219.676V480.541H233.405V466.811Z" fill="white"/>
<path d="M274.595 466.811H260.865V480.541H274.595V466.811Z" fill="white"/>
<path d="M315.784 466.811H302.054V480.541H315.784V466.811Z" fill="white"/>
<path d="M356.973 466.811H343.243V480.541H356.973V466.811Z" fill="white"/>
<path d="M370.703 466.811H356.973V480.541H370.703V466.811Z" fill="white"/>
<path d="M384.432 466.811H370.703V480.541H384.432V466.811Z" fill="white"/>
<path d="M466.811 466.811H453.081V480.541H466.811V466.811Z" fill="white"/>
</mask>
<g mask="url(#mask0_301_3986)">
<path d="M508 0H0V508H508V0Z" fill="black"/>
</g>
<path d="M27.4595 27.4595V123.568H123.568V27.4595H27.4595ZM109.838 109.838H41.1892V41.1892H109.838V109.838Z" fill="black"/>
<path d="M384.432 27.4595V123.568H480.541V27.4595H384.432ZM466.811 109.838H398.162V41.1892H466.811V109.838Z" fill="black"/>
<path d="M27.4595 384.432V480.541H123.568V384.432H27.4595ZM109.838 466.811H41.1892V398.162H109.838V466.811Z" fill="black"/>
<path d="M96.1081 54.9189H54.9189V96.1081H96.1081V54.9189Z" fill="black"/>
<path d="M453.081 54.9189H411.892V96.1081H453.081V54.9189Z" fill="black"/>
<path d="M96.1081 411.892H54.9189V453.081H96.1081V411.892Z" fill="black"/>
</svg>
