<svg width="577" height="577" viewBox="0 0 577 577" fill="none" xmlns="http://www.w3.org/2000/svg">
<mask id="mask0_301_1196" style="mask-type:luminance" maskUnits="userSpaceOnUse" x="25" y="25" width="527" height="527">
<path d="M141.044 25.6444H128.222V38.4667H141.044V25.6444Z" fill="white"/>
<path d="M166.689 25.6444H153.867V38.4667H166.689V25.6444Z" fill="white"/>
<path d="M179.511 25.6444H166.689V38.4667H179.511V25.6444Z" fill="white"/>
<path d="M217.978 25.6444H205.156V38.4667H217.978V25.6444Z" fill="white"/>
<path d="M230.8 25.6444H217.978V38.4667H230.8V25.6444Z" fill="white"/>
<path d="M320.556 25.6444H307.733V38.4667H320.556V25.6444Z" fill="white"/>
<path d="M346.2 25.6444H333.378V38.4667H346.2V25.6444Z" fill="white"/>
<path d="M410.311 25.6444H397.489V38.4667H410.311V25.6444Z" fill="white"/>
<path d="M423.133 25.6444H410.311V38.4667H423.133V25.6444Z" fill="white"/>
<path d="M435.956 25.6444H423.133V38.4667H435.956V25.6444Z" fill="white"/>
<path d="M448.778 25.6444H435.956V38.4667H448.778V25.6444Z" fill="white"/>
<path d="M141.044 38.4667H128.222V51.2889H141.044V38.4667Z" fill="white"/>
<path d="M153.867 38.4667H141.044V51.2889H153.867V38.4667Z" fill="white"/>
<path d="M166.689 38.4667H153.867V51.2889H166.689V38.4667Z" fill="white"/>
<path d="M192.333 38.4667H179.511V51.2889H192.333V38.4667Z" fill="white"/>
<path d="M205.156 38.4667H192.333V51.2889H205.156V38.4667Z" fill="white"/>
<path d="M217.978 38.4667H205.156V51.2889H217.978V38.4667Z" fill="white"/>
<path d="M230.8 38.4667H217.978V51.2889H230.8V38.4667Z" fill="white"/>
<path d="M243.622 38.4667H230.8V51.2889H243.622V38.4667Z" fill="white"/>
<path d="M256.444 38.4667H243.622V51.2889H256.444V38.4667Z" fill="white"/>
<path d="M269.267 38.4667H256.444V51.2889H269.267V38.4667Z" fill="white"/>
<path d="M294.911 38.4667H282.089V51.2889H294.911V38.4667Z" fill="white"/>
<path d="M307.733 38.4667H294.911V51.2889H307.733V38.4667Z" fill="white"/>
<path d="M320.556 38.4667H307.733V51.2889H320.556V38.4667Z" fill="white"/>
<path d="M333.378 38.4667H320.556V51.2889H333.378V38.4667Z" fill="white"/>
<path d="M384.667 38.4667H371.844V51.2889H384.667V38.4667Z" fill="white"/>
<path d="M397.489 38.4667H384.667V51.2889H397.489V38.4667Z" fill="white"/>
<path d="M410.311 38.4667H397.489V51.2889H410.311V38.4667Z" fill="white"/>
<path d="M448.778 38.4667H435.956V51.2889H448.778V38.4667Z" fill="white"/>
<path d="M141.044 51.2889H128.222V64.1111H141.044V51.2889Z" fill="white"/>
<path d="M230.8 51.2889H217.978V64.1111H230.8V51.2889Z" fill="white"/>
<path d="M243.622 51.2889H230.8V64.1111H243.622V51.2889Z" fill="white"/>
<path d="M269.267 51.2889H256.444V64.1111H269.267V51.2889Z" fill="white"/>
<path d="M320.556 51.2889H307.733V64.1111H320.556V51.2889Z" fill="white"/>
<path d="M333.378 51.2889H320.556V64.1111H333.378V51.2889Z" fill="white"/>
<path d="M346.2 51.2889H333.378V64.1111H346.2V51.2889Z" fill="white"/>
<path d="M371.844 51.2889H359.022V64.1111H371.844V51.2889Z" fill="white"/>
<path d="M384.667 51.2889H371.844V64.1111H384.667V51.2889Z" fill="white"/>
<path d="M410.311 51.2889H397.489V64.1111H410.311V51.2889Z" fill="white"/>
<path d="M423.133 51.2889H410.311V64.1111H423.133V51.2889Z" fill="white"/>
<path d="M153.867 64.1111H141.044V76.9333H153.867V64.1111Z" fill="white"/>
<path d="M230.8 64.1111H217.978V76.9333H230.8V64.1111Z" fill="white"/>
<path d="M269.267 64.1111H256.444V76.9333H269.267V64.1111Z" fill="white"/>
<path d="M282.089 64.1111H269.267V76.9333H282.089V64.1111Z" fill="white"/>
<path d="M320.556 64.1111H307.733V76.9333H320.556V64.1111Z" fill="white"/>
<path d="M346.2 64.1111H333.378V76.9333H346.2V64.1111Z" fill="white"/>
<path d="M384.667 64.1111H371.844V76.9333H384.667V64.1111Z" fill="white"/>
<path d="M153.867 76.9333H141.044V89.7556H153.867V76.9333Z" fill="white"/>
<path d="M166.689 76.9333H153.867V89.7556H166.689V76.9333Z" fill="white"/>
<path d="M179.511 76.9333H166.689V89.7556H179.511V76.9333Z" fill="white"/>
<path d="M217.978 76.9333H205.156V89.7556H217.978V76.9333Z" fill="white"/>
<path d="M269.267 76.9333H256.444V89.7556H269.267V76.9333Z" fill="white"/>
<path d="M282.089 76.9333H269.267V89.7556H282.089V76.9333Z" fill="white"/>
<path d="M294.911 76.9333H282.089V89.7556H294.911V76.9333Z" fill="white"/>
<path d="M307.733 76.9333H294.911V89.7556H307.733V76.9333Z" fill="white"/>
<path d="M333.378 76.9333H320.556V89.7556H333.378V76.9333Z" fill="white"/>
<path d="M346.2 76.9333H333.378V89.7556H346.2V76.9333Z" fill="white"/>
<path d="M371.844 76.9333H359.022V89.7556H371.844V76.9333Z" fill="white"/>
<path d="M397.489 76.9333H384.667V89.7556H397.489V76.9333Z" fill="white"/>
<path d="M423.133 76.9333H410.311V89.7556H423.133V76.9333Z" fill="white"/>
<path d="M435.956 76.9333H423.133V89.7556H435.956V76.9333Z" fill="white"/>
<path d="M448.778 76.9333H435.956V89.7556H448.778V76.9333Z" fill="white"/>
<path d="M141.044 89.7556H128.222V102.578H141.044V89.7556Z" fill="white"/>
<path d="M179.511 89.7556H166.689V102.578H179.511V89.7556Z" fill="white"/>
<path d="M192.333 89.7556H179.511V102.578H192.333V89.7556Z" fill="white"/>
<path d="M205.156 89.7556H192.333V102.578H205.156V89.7556Z" fill="white"/>
<path d="M243.622 89.7556H230.8V102.578H243.622V89.7556Z" fill="white"/>
<path d="M269.267 89.7556H256.444V102.578H269.267V89.7556Z" fill="white"/>
<path d="M307.733 89.7556H294.911V102.578H307.733V89.7556Z" fill="white"/>
<path d="M320.556 89.7556H307.733V102.578H320.556V89.7556Z" fill="white"/>
<path d="M359.022 89.7556H346.2V102.578H359.022V89.7556Z" fill="white"/>
<path d="M371.844 89.7556H359.022V102.578H371.844V89.7556Z" fill="white"/>
<path d="M384.667 89.7556H371.844V102.578H384.667V89.7556Z" fill="white"/>
<path d="M410.311 89.7556H397.489V102.578H410.311V89.7556Z" fill="white"/>
<path d="M448.778 89.7556H435.956V102.578H448.778V89.7556Z" fill="white"/>
<path d="M141.044 102.578H128.222V115.4H141.044V102.578Z" fill="white"/>
<path d="M166.689 102.578H153.867V115.4H166.689V102.578Z" fill="white"/>
<path d="M192.333 102.578H179.511V115.4H192.333V102.578Z" fill="white"/>
<path d="M217.978 102.578H205.156V115.4H217.978V102.578Z" fill="white"/>
<path d="M243.622 102.578H230.8V115.4H243.622V102.578Z" fill="white"/>
<path d="M269.267 102.578H256.444V115.4H269.267V102.578Z" fill="white"/>
<path d="M294.911 102.578H282.089V115.4H294.911V102.578Z" fill="white"/>
<path d="M320.556 102.578H307.733V115.4H320.556V102.578Z" fill="white"/>
<path d="M346.2 102.578H333.378V115.4H346.2V102.578Z" fill="white"/>
<path d="M371.844 102.578H359.022V115.4H371.844V102.578Z" fill="white"/>
<path d="M397.489 102.578H384.667V115.4H397.489V102.578Z" fill="white"/>
<path d="M423.133 102.578H410.311V115.4H423.133V102.578Z" fill="white"/>
<path d="M448.778 102.578H435.956V115.4H448.778V102.578Z" fill="white"/>
<path d="M141.044 115.4H128.222V128.222H141.044V115.4Z" fill="white"/>
<path d="M153.867 115.4H141.044V128.222H153.867V115.4Z" fill="white"/>
<path d="M192.333 115.4H179.511V128.222H192.333V115.4Z" fill="white"/>
<path d="M230.8 115.4H217.978V128.222H230.8V115.4Z" fill="white"/>
<path d="M269.267 115.4H256.444V128.222H269.267V115.4Z" fill="white"/>
<path d="M282.089 115.4H269.267V128.222H282.089V115.4Z" fill="white"/>
<path d="M294.911 115.4H282.089V128.222H294.911V115.4Z" fill="white"/>
<path d="M307.733 115.4H294.911V128.222H307.733V115.4Z" fill="white"/>
<path d="M333.378 115.4H320.556V128.222H333.378V115.4Z" fill="white"/>
<path d="M346.2 115.4H333.378V128.222H346.2V115.4Z" fill="white"/>
<path d="M359.022 115.4H346.2V128.222H359.022V115.4Z" fill="white"/>
<path d="M371.844 115.4H359.022V128.222H371.844V115.4Z" fill="white"/>
<path d="M397.489 115.4H384.667V128.222H397.489V115.4Z" fill="white"/>
<path d="M435.956 115.4H423.133V128.222H435.956V115.4Z" fill="white"/>
<path d="M64.1111 128.222H51.2889V141.044H64.1111V128.222Z" fill="white"/>
<path d="M76.9333 128.222H64.1111V141.044H76.9333V128.222Z" fill="white"/>
<path d="M89.7555 128.222H76.9333V141.044H89.7555V128.222Z" fill="white"/>
<path d="M115.4 128.222H102.578V141.044H115.4V128.222Z" fill="white"/>
<path d="M141.044 128.222H128.222V141.044H141.044V128.222Z" fill="white"/>
<path d="M153.867 128.222H141.044V141.044H153.867V128.222Z" fill="white"/>
<path d="M166.689 128.222H153.867V141.044H166.689V128.222Z" fill="white"/>
<path d="M179.511 128.222H166.689V141.044H179.511V128.222Z" fill="white"/>
<path d="M205.156 128.222H192.333V141.044H205.156V128.222Z" fill="white"/>
<path d="M256.444 128.222H243.622V141.044H256.444V128.222Z" fill="white"/>
<path d="M269.267 128.222H256.444V141.044H269.267V128.222Z" fill="white"/>
<path d="M282.089 128.222H269.267V141.044H282.089V128.222Z" fill="white"/>
<path d="M294.911 128.222H282.089V141.044H294.911V128.222Z" fill="white"/>
<path d="M333.378 128.222H320.556V141.044H333.378V128.222Z" fill="white"/>
<path d="M346.2 128.222H333.378V141.044H346.2V128.222Z" fill="white"/>
<path d="M410.311 128.222H397.489V141.044H410.311V128.222Z" fill="white"/>
<path d="M448.778 128.222H435.956V141.044H448.778V128.222Z" fill="white"/>
<path d="M461.6 128.222H448.778V141.044H461.6V128.222Z" fill="white"/>
<path d="M474.422 128.222H461.6V141.044H474.422V128.222Z" fill="white"/>
<path d="M487.244 128.222H474.422V141.044H487.244V128.222Z" fill="white"/>
<path d="M525.711 128.222H512.889V141.044H525.711V128.222Z" fill="white"/>
<path d="M538.533 128.222H525.711V141.044H538.533V128.222Z" fill="white"/>
<path d="M551.356 128.222H538.533V141.044H551.356V128.222Z" fill="white"/>
<path d="M89.7555 141.044H76.9333V153.867H89.7555V141.044Z" fill="white"/>
<path d="M128.222 141.044H115.4V153.867H128.222V141.044Z" fill="white"/>
<path d="M141.044 141.044H128.222V153.867H141.044V141.044Z" fill="white"/>
<path d="M166.689 141.044H153.867V153.867H166.689V141.044Z" fill="white"/>
<path d="M192.333 141.044H179.511V153.867H192.333V141.044Z" fill="white"/>
<path d="M205.156 141.044H192.333V153.867H205.156V141.044Z" fill="white"/>
<path d="M256.444 141.044H243.622V153.867H256.444V141.044Z" fill="white"/>
<path d="M269.267 141.044H256.444V153.867H269.267V141.044Z" fill="white"/>
<path d="M333.378 141.044H320.556V153.867H333.378V141.044Z" fill="white"/>
<path d="M359.022 141.044H346.2V153.867H359.022V141.044Z" fill="white"/>
<path d="M371.844 141.044H359.022V153.867H371.844V141.044Z" fill="white"/>
<path d="M397.489 141.044H384.667V153.867H397.489V141.044Z" fill="white"/>
<path d="M410.311 141.044H397.489V153.867H410.311V141.044Z" fill="white"/>
<path d="M435.956 141.044H423.133V153.867H435.956V141.044Z" fill="white"/>
<path d="M448.778 141.044H435.956V153.867H448.778V141.044Z" fill="white"/>
<path d="M461.6 141.044H448.778V153.867H461.6V141.044Z" fill="white"/>
<path d="M474.422 141.044H461.6V153.867H474.422V141.044Z" fill="white"/>
<path d="M487.244 141.044H474.422V153.867H487.244V141.044Z" fill="white"/>
<path d="M500.067 141.044H487.244V153.867H500.067V141.044Z" fill="white"/>
<path d="M525.711 141.044H512.889V153.867H525.711V141.044Z" fill="white"/>
<path d="M538.533 141.044H525.711V153.867H538.533V141.044Z" fill="white"/>
<path d="M551.356 141.044H538.533V153.867H551.356V141.044Z" fill="white"/>
<path d="M51.2889 153.867H38.4667V166.689H51.2889V153.867Z" fill="white"/>
<path d="M76.9333 153.867H64.1111V166.689H76.9333V153.867Z" fill="white"/>
<path d="M89.7555 153.867H76.9333V166.689H89.7555V153.867Z" fill="white"/>
<path d="M115.4 153.867H102.578V166.689H115.4V153.867Z" fill="white"/>
<path d="M128.222 153.867H115.4V166.689H128.222V153.867Z" fill="white"/>
<path d="M153.867 153.867H141.044V166.689H153.867V153.867Z" fill="white"/>
<path d="M205.156 153.867H192.333V166.689H205.156V153.867Z" fill="white"/>
<path d="M243.622 153.867H230.8V166.689H243.622V153.867Z" fill="white"/>
<path d="M256.444 153.867H243.622V166.689H256.444V153.867Z" fill="white"/>
<path d="M282.089 153.867H269.267V166.689H282.089V153.867Z" fill="white"/>
<path d="M307.733 153.867H294.911V166.689H307.733V153.867Z" fill="white"/>
<path d="M320.556 153.867H307.733V166.689H320.556V153.867Z" fill="white"/>
<path d="M359.022 153.867H346.2V166.689H359.022V153.867Z" fill="white"/>
<path d="M371.844 153.867H359.022V166.689H371.844V153.867Z" fill="white"/>
<path d="M384.667 153.867H371.844V166.689H384.667V153.867Z" fill="white"/>
<path d="M397.489 153.867H384.667V166.689H397.489V153.867Z" fill="white"/>
<path d="M410.311 153.867H397.489V166.689H410.311V153.867Z" fill="white"/>
<path d="M448.778 153.867H435.956V166.689H448.778V153.867Z" fill="white"/>
<path d="M461.6 153.867H448.778V166.689H461.6V153.867Z" fill="white"/>
<path d="M487.244 153.867H474.422V166.689H487.244V153.867Z" fill="white"/>
<path d="M500.067 153.867H487.244V166.689H500.067V153.867Z" fill="white"/>
<path d="M38.4667 166.689H25.6444V179.511H38.4667V166.689Z" fill="white"/>
<path d="M89.7555 166.689H76.9333V179.511H89.7555V166.689Z" fill="white"/>
<path d="M102.578 166.689H89.7556V179.511H102.578V166.689Z" fill="white"/>
<path d="M128.222 166.689H115.4V179.511H128.222V166.689Z" fill="white"/>
<path d="M141.044 166.689H128.222V179.511H141.044V166.689Z" fill="white"/>
<path d="M179.511 166.689H166.689V179.511H179.511V166.689Z" fill="white"/>
<path d="M205.156 166.689H192.333V179.511H205.156V166.689Z" fill="white"/>
<path d="M217.978 166.689H205.156V179.511H217.978V166.689Z" fill="white"/>
<path d="M256.444 166.689H243.622V179.511H256.444V166.689Z" fill="white"/>
<path d="M269.267 166.689H256.444V179.511H269.267V166.689Z" fill="white"/>
<path d="M282.089 166.689H269.267V179.511H282.089V166.689Z" fill="white"/>
<path d="M307.733 166.689H294.911V179.511H307.733V166.689Z" fill="white"/>
<path d="M320.556 166.689H307.733V179.511H320.556V166.689Z" fill="white"/>
<path d="M346.2 166.689H333.378V179.511H346.2V166.689Z" fill="white"/>
<path d="M359.022 166.689H346.2V179.511H359.022V166.689Z" fill="white"/>
<path d="M384.667 166.689H371.844V179.511H384.667V166.689Z" fill="white"/>
<path d="M435.956 166.689H423.133V179.511H435.956V166.689Z" fill="white"/>
<path d="M448.778 166.689H435.956V179.511H448.778V166.689Z" fill="white"/>
<path d="M461.6 166.689H448.778V179.511H461.6V166.689Z" fill="white"/>
<path d="M487.244 166.689H474.422V179.511H487.244V166.689Z" fill="white"/>
<path d="M500.067 166.689H487.244V179.511H500.067V166.689Z" fill="white"/>
<path d="M512.889 166.689H500.067V179.511H512.889V166.689Z" fill="white"/>
<path d="M551.356 166.689H538.533V179.511H551.356V166.689Z" fill="white"/>
<path d="M38.4667 179.511H25.6444V192.333H38.4667V179.511Z" fill="white"/>
<path d="M89.7555 179.511H76.9333V192.333H89.7555V179.511Z" fill="white"/>
<path d="M102.578 179.511H89.7556V192.333H102.578V179.511Z" fill="white"/>
<path d="M115.4 179.511H102.578V192.333H115.4V179.511Z" fill="white"/>
<path d="M153.867 179.511H141.044V192.333H153.867V179.511Z" fill="white"/>
<path d="M192.333 179.511H179.511V192.333H192.333V179.511Z" fill="white"/>
<path d="M230.8 179.511H217.978V192.333H230.8V179.511Z" fill="white"/>
<path d="M243.622 179.511H230.8V192.333H243.622V179.511Z" fill="white"/>
<path d="M269.267 179.511H256.444V192.333H269.267V179.511Z" fill="white"/>
<path d="M282.089 179.511H269.267V192.333H282.089V179.511Z" fill="white"/>
<path d="M333.378 179.511H320.556V192.333H333.378V179.511Z" fill="white"/>
<path d="M359.022 179.511H346.2V192.333H359.022V179.511Z" fill="white"/>
<path d="M371.844 179.511H359.022V192.333H371.844V179.511Z" fill="white"/>
<path d="M410.311 179.511H397.489V192.333H410.311V179.511Z" fill="white"/>
<path d="M435.956 179.511H423.133V192.333H435.956V179.511Z" fill="white"/>
<path d="M448.778 179.511H435.956V192.333H448.778V179.511Z" fill="white"/>
<path d="M512.889 179.511H500.067V192.333H512.889V179.511Z" fill="white"/>
<path d="M525.711 179.511H512.889V192.333H525.711V179.511Z" fill="white"/>
<path d="M551.356 179.511H538.533V192.333H551.356V179.511Z" fill="white"/>
<path d="M102.578 192.333H89.7556V205.156H102.578V192.333Z" fill="white"/>
<path d="M141.044 192.333H128.222V205.156H141.044V192.333Z" fill="white"/>
<path d="M153.867 192.333H141.044V205.156H153.867V192.333Z" fill="white"/>
<path d="M179.511 192.333H166.689V205.156H179.511V192.333Z" fill="white"/>
<path d="M192.333 192.333H179.511V205.156H192.333V192.333Z" fill="white"/>
<path d="M205.156 192.333H192.333V205.156H205.156V192.333Z" fill="white"/>
<path d="M217.978 192.333H205.156V205.156H217.978V192.333Z" fill="white"/>
<path d="M243.622 192.333H230.8V205.156H243.622V192.333Z" fill="white"/>
<path d="M256.444 192.333H243.622V205.156H256.444V192.333Z" fill="white"/>
<path d="M294.911 192.333H282.089V205.156H294.911V192.333Z" fill="white"/>
<path d="M320.556 192.333H307.733V205.156H320.556V192.333Z" fill="white"/>
<path d="M346.2 192.333H333.378V205.156H346.2V192.333Z" fill="white"/>
<path d="M359.022 192.333H346.2V205.156H359.022V192.333Z" fill="white"/>
<path d="M371.844 192.333H359.022V205.156H371.844V192.333Z" fill="white"/>
<path d="M384.667 192.333H371.844V205.156H384.667V192.333Z" fill="white"/>
<path d="M397.489 192.333H384.667V205.156H397.489V192.333Z" fill="white"/>
<path d="M410.311 192.333H397.489V205.156H410.311V192.333Z" fill="white"/>
<path d="M423.133 192.333H410.311V205.156H423.133V192.333Z" fill="white"/>
<path d="M474.422 192.333H461.6V205.156H474.422V192.333Z" fill="white"/>
<path d="M487.244 192.333H474.422V205.156H487.244V192.333Z" fill="white"/>
<path d="M500.067 192.333H487.244V205.156H500.067V192.333Z" fill="white"/>
<path d="M512.889 192.333H500.067V205.156H512.889V192.333Z" fill="white"/>
<path d="M538.533 192.333H525.711V205.156H538.533V192.333Z" fill="white"/>
<path d="M551.356 192.333H538.533V205.156H551.356V192.333Z" fill="white"/>
<path d="M89.7555 205.156H76.9333V217.978H89.7555V205.156Z" fill="white"/>
<path d="M115.4 205.156H102.578V217.978H115.4V205.156Z" fill="white"/>
<path d="M153.867 205.156H141.044V217.978H153.867V205.156Z" fill="white"/>
<path d="M179.511 205.156H166.689V217.978H179.511V205.156Z" fill="white"/>
<path d="M192.333 205.156H179.511V217.978H192.333V205.156Z" fill="white"/>
<path d="M205.156 205.156H192.333V217.978H205.156V205.156Z" fill="white"/>
<path d="M230.8 205.156H217.978V217.978H230.8V205.156Z" fill="white"/>
<path d="M256.444 205.156H243.622V217.978H256.444V205.156Z" fill="white"/>
<path d="M269.267 205.156H256.444V217.978H269.267V205.156Z" fill="white"/>
<path d="M371.844 205.156H359.022V217.978H371.844V205.156Z" fill="white"/>
<path d="M410.311 205.156H397.489V217.978H410.311V205.156Z" fill="white"/>
<path d="M448.778 205.156H435.956V217.978H448.778V205.156Z" fill="white"/>
<path d="M461.6 205.156H448.778V217.978H461.6V205.156Z" fill="white"/>
<path d="M38.4667 217.978H25.6444V230.8H38.4667V217.978Z" fill="white"/>
<path d="M64.1111 217.978H51.2889V230.8H64.1111V217.978Z" fill="white"/>
<path d="M76.9333 217.978H64.1111V230.8H76.9333V217.978Z" fill="white"/>
<path d="M89.7555 217.978H76.9333V230.8H89.7555V217.978Z" fill="white"/>
<path d="M102.578 217.978H89.7556V230.8H102.578V217.978Z" fill="white"/>
<path d="M192.333 217.978H179.511V230.8H192.333V217.978Z" fill="white"/>
<path d="M243.622 217.978H230.8V230.8H243.622V217.978Z" fill="white"/>
<path d="M294.911 217.978H282.089V230.8H294.911V217.978Z" fill="white"/>
<path d="M320.556 217.978H307.733V230.8H320.556V217.978Z" fill="white"/>
<path d="M333.378 217.978H320.556V230.8H333.378V217.978Z" fill="white"/>
<path d="M346.2 217.978H333.378V230.8H346.2V217.978Z" fill="white"/>
<path d="M359.022 217.978H346.2V230.8H359.022V217.978Z" fill="white"/>
<path d="M397.489 217.978H384.667V230.8H397.489V217.978Z" fill="white"/>
<path d="M423.133 217.978H410.311V230.8H423.133V217.978Z" fill="white"/>
<path d="M474.422 217.978H461.6V230.8H474.422V217.978Z" fill="white"/>
<path d="M500.067 217.978H487.244V230.8H500.067V217.978Z" fill="white"/>
<path d="M512.889 217.978H500.067V230.8H512.889V217.978Z" fill="white"/>
<path d="M551.356 217.978H538.533V230.8H551.356V217.978Z" fill="white"/>
<path d="M38.4667 230.8H25.6444V243.622H38.4667V230.8Z" fill="white"/>
<path d="M51.2889 230.8H38.4667V243.622H51.2889V230.8Z" fill="white"/>
<path d="M76.9333 230.8H64.1111V243.622H76.9333V230.8Z" fill="white"/>
<path d="M89.7555 230.8H76.9333V243.622H89.7555V230.8Z" fill="white"/>
<path d="M115.4 230.8H102.578V243.622H115.4V230.8Z" fill="white"/>
<path d="M166.689 230.8H153.867V243.622H166.689V230.8Z" fill="white"/>
<path d="M192.333 230.8H179.511V243.622H192.333V230.8Z" fill="white"/>
<path d="M205.156 230.8H192.333V243.622H205.156V230.8Z" fill="white"/>
<path d="M217.978 230.8H205.156V243.622H217.978V230.8Z" fill="white"/>
<path d="M230.8 230.8H217.978V243.622H230.8V230.8Z" fill="white"/>
<path d="M243.622 230.8H230.8V243.622H243.622V230.8Z" fill="white"/>
<path d="M269.267 230.8H256.444V243.622H269.267V230.8Z" fill="white"/>
<path d="M282.089 230.8H269.267V243.622H282.089V230.8Z" fill="white"/>
<path d="M294.911 230.8H282.089V243.622H294.911V230.8Z" fill="white"/>
<path d="M307.733 230.8H294.911V243.622H307.733V230.8Z" fill="white"/>
<path d="M320.556 230.8H307.733V243.622H320.556V230.8Z" fill="white"/>
<path d="M346.2 230.8H333.378V243.622H346.2V230.8Z" fill="white"/>
<path d="M359.022 230.8H346.2V243.622H359.022V230.8Z" fill="white"/>
<path d="M371.844 230.8H359.022V243.622H371.844V230.8Z" fill="white"/>
<path d="M410.311 230.8H397.489V243.622H410.311V230.8Z" fill="white"/>
<path d="M461.6 230.8H448.778V243.622H461.6V230.8Z" fill="white"/>
<path d="M487.244 230.8H474.422V243.622H487.244V230.8Z" fill="white"/>
<path d="M525.711 230.8H512.889V243.622H525.711V230.8Z" fill="white"/>
<path d="M538.533 230.8H525.711V243.622H538.533V230.8Z" fill="white"/>
<path d="M51.2889 243.622H38.4667V256.444H51.2889V243.622Z" fill="white"/>
<path d="M76.9333 243.622H64.1111V256.444H76.9333V243.622Z" fill="white"/>
<path d="M128.222 243.622H115.4V256.444H128.222V243.622Z" fill="white"/>
<path d="M141.044 243.622H128.222V256.444H141.044V243.622Z" fill="white"/>
<path d="M205.156 243.622H192.333V256.444H205.156V243.622Z" fill="white"/>
<path d="M269.267 243.622H256.444V256.444H269.267V243.622Z" fill="white"/>
<path d="M282.089 243.622H269.267V256.444H282.089V243.622Z" fill="white"/>
<path d="M294.911 243.622H282.089V256.444H294.911V243.622Z" fill="white"/>
<path d="M307.733 243.622H294.911V256.444H307.733V243.622Z" fill="white"/>
<path d="M333.378 243.622H320.556V256.444H333.378V243.622Z" fill="white"/>
<path d="M371.844 243.622H359.022V256.444H371.844V243.622Z" fill="white"/>
<path d="M397.489 243.622H384.667V256.444H397.489V243.622Z" fill="white"/>
<path d="M435.956 243.622H423.133V256.444H435.956V243.622Z" fill="white"/>
<path d="M448.778 243.622H435.956V256.444H448.778V243.622Z" fill="white"/>
<path d="M474.422 243.622H461.6V256.444H474.422V243.622Z" fill="white"/>
<path d="M487.244 243.622H474.422V256.444H487.244V243.622Z" fill="white"/>
<path d="M500.067 243.622H487.244V256.444H500.067V243.622Z" fill="white"/>
<path d="M551.356 243.622H538.533V256.444H551.356V243.622Z" fill="white"/>
<path d="M38.4667 256.444H25.6444V269.267H38.4667V256.444Z" fill="white"/>
<path d="M64.1111 256.444H51.2889V269.267H64.1111V256.444Z" fill="white"/>
<path d="M102.578 256.444H89.7556V269.267H102.578V256.444Z" fill="white"/>
<path d="M115.4 256.444H102.578V269.267H115.4V256.444Z" fill="white"/>
<path d="M128.222 256.444H115.4V269.267H128.222V256.444Z" fill="white"/>
<path d="M166.689 256.444H153.867V269.267H166.689V256.444Z" fill="white"/>
<path d="M256.444 256.444H243.622V269.267H256.444V256.444Z" fill="white"/>
<path d="M269.267 256.444H256.444V269.267H269.267V256.444Z" fill="white"/>
<path d="M294.911 256.444H282.089V269.267H294.911V256.444Z" fill="white"/>
<path d="M359.022 256.444H346.2V269.267H359.022V256.444Z" fill="white"/>
<path d="M384.667 256.444H371.844V269.267H384.667V256.444Z" fill="white"/>
<path d="M423.133 256.444H410.311V269.267H423.133V256.444Z" fill="white"/>
<path d="M448.778 256.444H435.956V269.267H448.778V256.444Z" fill="white"/>
<path d="M461.6 256.444H448.778V269.267H461.6V256.444Z" fill="white"/>
<path d="M500.067 256.444H487.244V269.267H500.067V256.444Z" fill="white"/>
<path d="M512.889 256.444H500.067V269.267H512.889V256.444Z" fill="white"/>
<path d="M38.4667 269.267H25.6444V282.089H38.4667V269.267Z" fill="white"/>
<path d="M51.2889 269.267H38.4667V282.089H51.2889V269.267Z" fill="white"/>
<path d="M76.9333 269.267H64.1111V282.089H76.9333V269.267Z" fill="white"/>
<path d="M128.222 269.267H115.4V282.089H128.222V269.267Z" fill="white"/>
<path d="M141.044 269.267H128.222V282.089H141.044V269.267Z" fill="white"/>
<path d="M166.689 269.267H153.867V282.089H166.689V269.267Z" fill="white"/>
<path d="M179.511 269.267H166.689V282.089H179.511V269.267Z" fill="white"/>
<path d="M192.333 269.267H179.511V282.089H192.333V269.267Z" fill="white"/>
<path d="M217.978 269.267H205.156V282.089H217.978V269.267Z" fill="white"/>
<path d="M230.8 269.267H217.978V282.089H230.8V269.267Z" fill="white"/>
<path d="M243.622 269.267H230.8V282.089H243.622V269.267Z" fill="white"/>
<path d="M256.444 269.267H243.622V282.089H256.444V269.267Z" fill="white"/>
<path d="M269.267 269.267H256.444V282.089H269.267V269.267Z" fill="white"/>
<path d="M294.911 269.267H282.089V282.089H294.911V269.267Z" fill="white"/>
<path d="M359.022 269.267H346.2V282.089H359.022V269.267Z" fill="white"/>
<path d="M371.844 269.267H359.022V282.089H371.844V269.267Z" fill="white"/>
<path d="M435.956 269.267H423.133V282.089H435.956V269.267Z" fill="white"/>
<path d="M500.067 269.267H487.244V282.089H500.067V269.267Z" fill="white"/>
<path d="M512.889 269.267H500.067V282.089H512.889V269.267Z" fill="white"/>
<path d="M551.356 269.267H538.533V282.089H551.356V269.267Z" fill="white"/>
<path d="M51.2889 282.089H38.4667V294.911H51.2889V282.089Z" fill="white"/>
<path d="M64.1111 282.089H51.2889V294.911H64.1111V282.089Z" fill="white"/>
<path d="M115.4 282.089H102.578V294.911H115.4V282.089Z" fill="white"/>
<path d="M128.222 282.089H115.4V294.911H128.222V282.089Z" fill="white"/>
<path d="M141.044 282.089H128.222V294.911H141.044V282.089Z" fill="white"/>
<path d="M153.867 282.089H141.044V294.911H153.867V282.089Z" fill="white"/>
<path d="M230.8 282.089H217.978V294.911H230.8V282.089Z" fill="white"/>
<path d="M282.089 282.089H269.267V294.911H282.089V282.089Z" fill="white"/>
<path d="M294.911 282.089H282.089V294.911H294.911V282.089Z" fill="white"/>
<path d="M333.378 282.089H320.556V294.911H333.378V282.089Z" fill="white"/>
<path d="M384.667 282.089H371.844V294.911H384.667V282.089Z" fill="white"/>
<path d="M423.133 282.089H410.311V294.911H423.133V282.089Z" fill="white"/>
<path d="M487.244 282.089H474.422V294.911H487.244V282.089Z" fill="white"/>
<path d="M512.889 282.089H500.067V294.911H512.889V282.089Z" fill="white"/>
<path d="M525.711 282.089H512.889V294.911H525.711V282.089Z" fill="white"/>
<path d="M538.533 282.089H525.711V294.911H538.533V282.089Z" fill="white"/>
<path d="M38.4667 294.911H25.6444V307.733H38.4667V294.911Z" fill="white"/>
<path d="M51.2889 294.911H38.4667V307.733H51.2889V294.911Z" fill="white"/>
<path d="M76.9333 294.911H64.1111V307.733H76.9333V294.911Z" fill="white"/>
<path d="M89.7555 294.911H76.9333V307.733H89.7555V294.911Z" fill="white"/>
<path d="M102.578 294.911H89.7556V307.733H102.578V294.911Z" fill="white"/>
<path d="M153.867 294.911H141.044V307.733H153.867V294.911Z" fill="white"/>
<path d="M179.511 294.911H166.689V307.733H179.511V294.911Z" fill="white"/>
<path d="M205.156 294.911H192.333V307.733H205.156V294.911Z" fill="white"/>
<path d="M217.978 294.911H205.156V307.733H217.978V294.911Z" fill="white"/>
<path d="M269.267 294.911H256.444V307.733H269.267V294.911Z" fill="white"/>
<path d="M282.089 294.911H269.267V307.733H282.089V294.911Z" fill="white"/>
<path d="M294.911 294.911H282.089V307.733H294.911V294.911Z" fill="white"/>
<path d="M307.733 294.911H294.911V307.733H307.733V294.911Z" fill="white"/>
<path d="M333.378 294.911H320.556V307.733H333.378V294.911Z" fill="white"/>
<path d="M346.2 294.911H333.378V307.733H346.2V294.911Z" fill="white"/>
<path d="M359.022 294.911H346.2V307.733H359.022V294.911Z" fill="white"/>
<path d="M397.489 294.911H384.667V307.733H397.489V294.911Z" fill="white"/>
<path d="M435.956 294.911H423.133V307.733H435.956V294.911Z" fill="white"/>
<path d="M448.778 294.911H435.956V307.733H448.778V294.911Z" fill="white"/>
<path d="M461.6 294.911H448.778V307.733H461.6V294.911Z" fill="white"/>
<path d="M474.422 294.911H461.6V307.733H474.422V294.911Z" fill="white"/>
<path d="M487.244 294.911H474.422V307.733H487.244V294.911Z" fill="white"/>
<path d="M500.067 294.911H487.244V307.733H500.067V294.911Z" fill="white"/>
<path d="M525.711 294.911H512.889V307.733H525.711V294.911Z" fill="white"/>
<path d="M538.533 294.911H525.711V307.733H538.533V294.911Z" fill="white"/>
<path d="M551.356 294.911H538.533V307.733H551.356V294.911Z" fill="white"/>
<path d="M51.2889 307.733H38.4667V320.556H51.2889V307.733Z" fill="white"/>
<path d="M64.1111 307.733H51.2889V320.556H64.1111V307.733Z" fill="white"/>
<path d="M76.9333 307.733H64.1111V320.556H76.9333V307.733Z" fill="white"/>
<path d="M89.7555 307.733H76.9333V320.556H89.7555V307.733Z" fill="white"/>
<path d="M102.578 307.733H89.7556V320.556H102.578V307.733Z" fill="white"/>
<path d="M115.4 307.733H102.578V320.556H115.4V307.733Z" fill="white"/>
<path d="M141.044 307.733H128.222V320.556H141.044V307.733Z" fill="white"/>
<path d="M166.689 307.733H153.867V320.556H166.689V307.733Z" fill="white"/>
<path d="M179.511 307.733H166.689V320.556H179.511V307.733Z" fill="white"/>
<path d="M205.156 307.733H192.333V320.556H205.156V307.733Z" fill="white"/>
<path d="M230.8 307.733H217.978V320.556H230.8V307.733Z" fill="white"/>
<path d="M243.622 307.733H230.8V320.556H243.622V307.733Z" fill="white"/>
<path d="M294.911 307.733H282.089V320.556H294.911V307.733Z" fill="white"/>
<path d="M307.733 307.733H294.911V320.556H307.733V307.733Z" fill="white"/>
<path d="M333.378 307.733H320.556V320.556H333.378V307.733Z" fill="white"/>
<path d="M346.2 307.733H333.378V320.556H346.2V307.733Z" fill="white"/>
<path d="M359.022 307.733H346.2V320.556H359.022V307.733Z" fill="white"/>
<path d="M384.667 307.733H371.844V320.556H384.667V307.733Z" fill="white"/>
<path d="M397.489 307.733H384.667V320.556H397.489V307.733Z" fill="white"/>
<path d="M410.311 307.733H397.489V320.556H410.311V307.733Z" fill="white"/>
<path d="M474.422 307.733H461.6V320.556H474.422V307.733Z" fill="white"/>
<path d="M487.244 307.733H474.422V320.556H487.244V307.733Z" fill="white"/>
<path d="M500.067 307.733H487.244V320.556H500.067V307.733Z" fill="white"/>
<path d="M38.4667 320.556H25.6444V333.378H38.4667V320.556Z" fill="white"/>
<path d="M51.2889 320.556H38.4667V333.378H51.2889V320.556Z" fill="white"/>
<path d="M64.1111 320.556H51.2889V333.378H64.1111V320.556Z" fill="white"/>
<path d="M76.9333 320.556H64.1111V333.378H76.9333V320.556Z" fill="white"/>
<path d="M89.7555 320.556H76.9333V333.378H89.7555V320.556Z" fill="white"/>
<path d="M102.578 320.556H89.7556V333.378H102.578V320.556Z" fill="white"/>
<path d="M128.222 320.556H115.4V333.378H128.222V320.556Z" fill="white"/>
<path d="M153.867 320.556H141.044V333.378H153.867V320.556Z" fill="white"/>
<path d="M179.511 320.556H166.689V333.378H179.511V320.556Z" fill="white"/>
<path d="M205.156 320.556H192.333V333.378H205.156V320.556Z" fill="white"/>
<path d="M217.978 320.556H205.156V333.378H217.978V320.556Z" fill="white"/>
<path d="M269.267 320.556H256.444V333.378H269.267V320.556Z" fill="white"/>
<path d="M282.089 320.556H269.267V333.378H282.089V320.556Z" fill="white"/>
<path d="M294.911 320.556H282.089V333.378H294.911V320.556Z" fill="white"/>
<path d="M320.556 320.556H307.733V333.378H320.556V320.556Z" fill="white"/>
<path d="M333.378 320.556H320.556V333.378H333.378V320.556Z" fill="white"/>
<path d="M346.2 320.556H333.378V333.378H346.2V320.556Z" fill="white"/>
<path d="M359.022 320.556H346.2V333.378H359.022V320.556Z" fill="white"/>
<path d="M384.667 320.556H371.844V333.378H384.667V320.556Z" fill="white"/>
<path d="M435.956 320.556H423.133V333.378H435.956V320.556Z" fill="white"/>
<path d="M448.778 320.556H435.956V333.378H448.778V320.556Z" fill="white"/>
<path d="M461.6 320.556H448.778V333.378H461.6V320.556Z" fill="white"/>
<path d="M487.244 320.556H474.422V333.378H487.244V320.556Z" fill="white"/>
<path d="M512.889 320.556H500.067V333.378H512.889V320.556Z" fill="white"/>
<path d="M538.533 320.556H525.711V333.378H538.533V320.556Z" fill="white"/>
<path d="M551.356 320.556H538.533V333.378H551.356V320.556Z" fill="white"/>
<path d="M38.4667 333.378H25.6444V346.2H38.4667V333.378Z" fill="white"/>
<path d="M64.1111 333.378H51.2889V346.2H64.1111V333.378Z" fill="white"/>
<path d="M89.7555 333.378H76.9333V346.2H89.7555V333.378Z" fill="white"/>
<path d="M102.578 333.378H89.7556V346.2H102.578V333.378Z" fill="white"/>
<path d="M115.4 333.378H102.578V346.2H115.4V333.378Z" fill="white"/>
<path d="M128.222 333.378H115.4V346.2H128.222V333.378Z" fill="white"/>
<path d="M141.044 333.378H128.222V346.2H141.044V333.378Z" fill="white"/>
<path d="M166.689 333.378H153.867V346.2H166.689V333.378Z" fill="white"/>
<path d="M179.511 333.378H166.689V346.2H179.511V333.378Z" fill="white"/>
<path d="M205.156 333.378H192.333V346.2H205.156V333.378Z" fill="white"/>
<path d="M230.8 333.378H217.978V346.2H230.8V333.378Z" fill="white"/>
<path d="M269.267 333.378H256.444V346.2H269.267V333.378Z" fill="white"/>
<path d="M307.733 333.378H294.911V346.2H307.733V333.378Z" fill="white"/>
<path d="M320.556 333.378H307.733V346.2H320.556V333.378Z" fill="white"/>
<path d="M333.378 333.378H320.556V346.2H333.378V333.378Z" fill="white"/>
<path d="M384.667 333.378H371.844V346.2H384.667V333.378Z" fill="white"/>
<path d="M410.311 333.378H397.489V346.2H410.311V333.378Z" fill="white"/>
<path d="M435.956 333.378H423.133V346.2H435.956V333.378Z" fill="white"/>
<path d="M525.711 333.378H512.889V346.2H525.711V333.378Z" fill="white"/>
<path d="M538.533 333.378H525.711V346.2H538.533V333.378Z" fill="white"/>
<path d="M38.4667 346.2H25.6444V359.022H38.4667V346.2Z" fill="white"/>
<path d="M51.2889 346.2H38.4667V359.022H51.2889V346.2Z" fill="white"/>
<path d="M76.9333 346.2H64.1111V359.022H76.9333V346.2Z" fill="white"/>
<path d="M102.578 346.2H89.7556V359.022H102.578V346.2Z" fill="white"/>
<path d="M128.222 346.2H115.4V359.022H128.222V346.2Z" fill="white"/>
<path d="M141.044 346.2H128.222V359.022H141.044V346.2Z" fill="white"/>
<path d="M153.867 346.2H141.044V359.022H153.867V346.2Z" fill="white"/>
<path d="M166.689 346.2H153.867V359.022H166.689V346.2Z" fill="white"/>
<path d="M179.511 346.2H166.689V359.022H179.511V346.2Z" fill="white"/>
<path d="M230.8 346.2H217.978V359.022H230.8V346.2Z" fill="white"/>
<path d="M243.622 346.2H230.8V359.022H243.622V346.2Z" fill="white"/>
<path d="M307.733 346.2H294.911V359.022H307.733V346.2Z" fill="white"/>
<path d="M320.556 346.2H307.733V359.022H320.556V346.2Z" fill="white"/>
<path d="M333.378 346.2H320.556V359.022H333.378V346.2Z" fill="white"/>
<path d="M371.844 346.2H359.022V359.022H371.844V346.2Z" fill="white"/>
<path d="M397.489 346.2H384.667V359.022H397.489V346.2Z" fill="white"/>
<path d="M410.311 346.2H397.489V359.022H410.311V346.2Z" fill="white"/>
<path d="M435.956 346.2H423.133V359.022H435.956V346.2Z" fill="white"/>
<path d="M461.6 346.2H448.778V359.022H461.6V346.2Z" fill="white"/>
<path d="M474.422 346.2H461.6V359.022H474.422V346.2Z" fill="white"/>
<path d="M487.244 346.2H474.422V359.022H487.244V346.2Z" fill="white"/>
<path d="M500.067 346.2H487.244V359.022H500.067V346.2Z" fill="white"/>
<path d="M512.889 346.2H500.067V359.022H512.889V346.2Z" fill="white"/>
<path d="M551.356 346.2H538.533V359.022H551.356V346.2Z" fill="white"/>
<path d="M38.4667 359.022H25.6444V371.844H38.4667V359.022Z" fill="white"/>
<path d="M51.2889 359.022H38.4667V371.844H51.2889V359.022Z" fill="white"/>
<path d="M64.1111 359.022H51.2889V371.844H64.1111V359.022Z" fill="white"/>
<path d="M76.9333 359.022H64.1111V371.844H76.9333V359.022Z" fill="white"/>
<path d="M89.7555 359.022H76.9333V371.844H89.7555V359.022Z" fill="white"/>
<path d="M115.4 359.022H102.578V371.844H115.4V359.022Z" fill="white"/>
<path d="M128.222 359.022H115.4V371.844H128.222V359.022Z" fill="white"/>
<path d="M141.044 359.022H128.222V371.844H141.044V359.022Z" fill="white"/>
<path d="M153.867 359.022H141.044V371.844H153.867V359.022Z" fill="white"/>
<path d="M179.511 359.022H166.689V371.844H179.511V359.022Z" fill="white"/>
<path d="M205.156 359.022H192.333V371.844H205.156V359.022Z" fill="white"/>
<path d="M217.978 359.022H205.156V371.844H217.978V359.022Z" fill="white"/>
<path d="M230.8 359.022H217.978V371.844H230.8V359.022Z" fill="white"/>
<path d="M243.622 359.022H230.8V371.844H243.622V359.022Z" fill="white"/>
<path d="M282.089 359.022H269.267V371.844H282.089V359.022Z" fill="white"/>
<path d="M294.911 359.022H282.089V371.844H294.911V359.022Z" fill="white"/>
<path d="M307.733 359.022H294.911V371.844H307.733V359.022Z" fill="white"/>
<path d="M333.378 359.022H320.556V371.844H333.378V359.022Z" fill="white"/>
<path d="M346.2 359.022H333.378V371.844H346.2V359.022Z" fill="white"/>
<path d="M384.667 359.022H371.844V371.844H384.667V359.022Z" fill="white"/>
<path d="M448.778 359.022H435.956V371.844H448.778V359.022Z" fill="white"/>
<path d="M500.067 359.022H487.244V371.844H500.067V359.022Z" fill="white"/>
<path d="M538.533 359.022H525.711V371.844H538.533V359.022Z" fill="white"/>
<path d="M64.1111 371.844H51.2889V384.667H64.1111V371.844Z" fill="white"/>
<path d="M76.9333 371.844H64.1111V384.667H76.9333V371.844Z" fill="white"/>
<path d="M89.7555 371.844H76.9333V384.667H89.7555V371.844Z" fill="white"/>
<path d="M102.578 371.844H89.7556V384.667H102.578V371.844Z" fill="white"/>
<path d="M128.222 371.844H115.4V384.667H128.222V371.844Z" fill="white"/>
<path d="M141.044 371.844H128.222V384.667H141.044V371.844Z" fill="white"/>
<path d="M166.689 371.844H153.867V384.667H166.689V371.844Z" fill="white"/>
<path d="M205.156 371.844H192.333V384.667H205.156V371.844Z" fill="white"/>
<path d="M217.978 371.844H205.156V384.667H217.978V371.844Z" fill="white"/>
<path d="M230.8 371.844H217.978V384.667H230.8V371.844Z" fill="white"/>
<path d="M256.444 371.844H243.622V384.667H256.444V371.844Z" fill="white"/>
<path d="M294.911 371.844H282.089V384.667H294.911V371.844Z" fill="white"/>
<path d="M320.556 371.844H307.733V384.667H320.556V371.844Z" fill="white"/>
<path d="M371.844 371.844H359.022V384.667H371.844V371.844Z" fill="white"/>
<path d="M397.489 371.844H384.667V384.667H397.489V371.844Z" fill="white"/>
<path d="M435.956 371.844H423.133V384.667H435.956V371.844Z" fill="white"/>
<path d="M448.778 371.844H435.956V384.667H448.778V371.844Z" fill="white"/>
<path d="M461.6 371.844H448.778V384.667H461.6V371.844Z" fill="white"/>
<path d="M487.244 371.844H474.422V384.667H487.244V371.844Z" fill="white"/>
<path d="M500.067 371.844H487.244V384.667H500.067V371.844Z" fill="white"/>
<path d="M512.889 371.844H500.067V384.667H512.889V371.844Z" fill="white"/>
<path d="M551.356 371.844H538.533V384.667H551.356V371.844Z" fill="white"/>
<path d="M38.4667 384.667H25.6444V397.489H38.4667V384.667Z" fill="white"/>
<path d="M76.9333 384.667H64.1111V397.489H76.9333V384.667Z" fill="white"/>
<path d="M102.578 384.667H89.7556V397.489H102.578V384.667Z" fill="white"/>
<path d="M115.4 384.667H102.578V397.489H115.4V384.667Z" fill="white"/>
<path d="M141.044 384.667H128.222V397.489H141.044V384.667Z" fill="white"/>
<path d="M153.867 384.667H141.044V397.489H153.867V384.667Z" fill="white"/>
<path d="M243.622 384.667H230.8V397.489H243.622V384.667Z" fill="white"/>
<path d="M269.267 384.667H256.444V397.489H269.267V384.667Z" fill="white"/>
<path d="M333.378 384.667H320.556V397.489H333.378V384.667Z" fill="white"/>
<path d="M346.2 384.667H333.378V397.489H346.2V384.667Z" fill="white"/>
<path d="M371.844 384.667H359.022V397.489H371.844V384.667Z" fill="white"/>
<path d="M397.489 384.667H384.667V397.489H397.489V384.667Z" fill="white"/>
<path d="M410.311 384.667H397.489V397.489H410.311V384.667Z" fill="white"/>
<path d="M423.133 384.667H410.311V397.489H423.133V384.667Z" fill="white"/>
<path d="M435.956 384.667H423.133V397.489H435.956V384.667Z" fill="white"/>
<path d="M461.6 384.667H448.778V397.489H461.6V384.667Z" fill="white"/>
<path d="M487.244 384.667H474.422V397.489H487.244V384.667Z" fill="white"/>
<path d="M512.889 384.667H500.067V397.489H512.889V384.667Z" fill="white"/>
<path d="M525.711 384.667H512.889V397.489H525.711V384.667Z" fill="white"/>
<path d="M551.356 384.667H538.533V397.489H551.356V384.667Z" fill="white"/>
<path d="M38.4667 397.489H25.6444V410.311H38.4667V397.489Z" fill="white"/>
<path d="M102.578 397.489H89.7556V410.311H102.578V397.489Z" fill="white"/>
<path d="M128.222 397.489H115.4V410.311H128.222V397.489Z" fill="white"/>
<path d="M141.044 397.489H128.222V410.311H141.044V397.489Z" fill="white"/>
<path d="M153.867 397.489H141.044V410.311H153.867V397.489Z" fill="white"/>
<path d="M205.156 397.489H192.333V410.311H205.156V397.489Z" fill="white"/>
<path d="M230.8 397.489H217.978V410.311H230.8V397.489Z" fill="white"/>
<path d="M269.267 397.489H256.444V410.311H269.267V397.489Z" fill="white"/>
<path d="M320.556 397.489H307.733V410.311H320.556V397.489Z" fill="white"/>
<path d="M346.2 397.489H333.378V410.311H346.2V397.489Z" fill="white"/>
<path d="M384.667 397.489H371.844V410.311H384.667V397.489Z" fill="white"/>
<path d="M423.133 397.489H410.311V410.311H423.133V397.489Z" fill="white"/>
<path d="M448.778 397.489H435.956V410.311H448.778V397.489Z" fill="white"/>
<path d="M461.6 397.489H448.778V410.311H461.6V397.489Z" fill="white"/>
<path d="M487.244 397.489H474.422V410.311H487.244V397.489Z" fill="white"/>
<path d="M500.067 397.489H487.244V410.311H500.067V397.489Z" fill="white"/>
<path d="M538.533 397.489H525.711V410.311H538.533V397.489Z" fill="white"/>
<path d="M551.356 397.489H538.533V410.311H551.356V397.489Z" fill="white"/>
<path d="M38.4667 410.311H25.6444V423.133H38.4667V410.311Z" fill="white"/>
<path d="M64.1111 410.311H51.2889V423.133H64.1111V410.311Z" fill="white"/>
<path d="M89.7555 410.311H76.9333V423.133H89.7555V410.311Z" fill="white"/>
<path d="M102.578 410.311H89.7556V423.133H102.578V410.311Z" fill="white"/>
<path d="M115.4 410.311H102.578V423.133H115.4V410.311Z" fill="white"/>
<path d="M128.222 410.311H115.4V423.133H128.222V410.311Z" fill="white"/>
<path d="M153.867 410.311H141.044V423.133H153.867V410.311Z" fill="white"/>
<path d="M166.689 410.311H153.867V423.133H166.689V410.311Z" fill="white"/>
<path d="M192.333 410.311H179.511V423.133H192.333V410.311Z" fill="white"/>
<path d="M205.156 410.311H192.333V423.133H205.156V410.311Z" fill="white"/>
<path d="M230.8 410.311H217.978V423.133H230.8V410.311Z" fill="white"/>
<path d="M243.622 410.311H230.8V423.133H243.622V410.311Z" fill="white"/>
<path d="M269.267 410.311H256.444V423.133H269.267V410.311Z" fill="white"/>
<path d="M333.378 410.311H320.556V423.133H333.378V410.311Z" fill="white"/>
<path d="M346.2 410.311H333.378V423.133H346.2V410.311Z" fill="white"/>
<path d="M384.667 410.311H371.844V423.133H384.667V410.311Z" fill="white"/>
<path d="M397.489 410.311H384.667V423.133H397.489V410.311Z" fill="white"/>
<path d="M435.956 410.311H423.133V423.133H435.956V410.311Z" fill="white"/>
<path d="M461.6 410.311H448.778V423.133H461.6V410.311Z" fill="white"/>
<path d="M474.422 410.311H461.6V423.133H474.422V410.311Z" fill="white"/>
<path d="M487.244 410.311H474.422V423.133H487.244V410.311Z" fill="white"/>
<path d="M512.889 410.311H500.067V423.133H512.889V410.311Z" fill="white"/>
<path d="M38.4667 423.133H25.6444V435.956H38.4667V423.133Z" fill="white"/>
<path d="M128.222 423.133H115.4V435.956H128.222V423.133Z" fill="white"/>
<path d="M153.867 423.133H141.044V435.956H153.867V423.133Z" fill="white"/>
<path d="M166.689 423.133H153.867V435.956H166.689V423.133Z" fill="white"/>
<path d="M243.622 423.133H230.8V435.956H243.622V423.133Z" fill="white"/>
<path d="M256.444 423.133H243.622V435.956H256.444V423.133Z" fill="white"/>
<path d="M269.267 423.133H256.444V435.956H269.267V423.133Z" fill="white"/>
<path d="M282.089 423.133H269.267V435.956H282.089V423.133Z" fill="white"/>
<path d="M294.911 423.133H282.089V435.956H294.911V423.133Z" fill="white"/>
<path d="M307.733 423.133H294.911V435.956H307.733V423.133Z" fill="white"/>
<path d="M320.556 423.133H307.733V435.956H320.556V423.133Z" fill="white"/>
<path d="M359.022 423.133H346.2V435.956H359.022V423.133Z" fill="white"/>
<path d="M371.844 423.133H359.022V435.956H371.844V423.133Z" fill="white"/>
<path d="M384.667 423.133H371.844V435.956H384.667V423.133Z" fill="white"/>
<path d="M423.133 423.133H410.311V435.956H423.133V423.133Z" fill="white"/>
<path d="M435.956 423.133H423.133V435.956H435.956V423.133Z" fill="white"/>
<path d="M448.778 423.133H435.956V435.956H448.778V423.133Z" fill="white"/>
<path d="M461.6 423.133H448.778V435.956H461.6V423.133Z" fill="white"/>
<path d="M474.422 423.133H461.6V435.956H474.422V423.133Z" fill="white"/>
<path d="M487.244 423.133H474.422V435.956H487.244V423.133Z" fill="white"/>
<path d="M500.067 423.133H487.244V435.956H500.067V423.133Z" fill="white"/>
<path d="M512.889 423.133H500.067V435.956H512.889V423.133Z" fill="white"/>
<path d="M38.4667 435.956H25.6444V448.778H38.4667V435.956Z" fill="white"/>
<path d="M89.7555 435.956H76.9333V448.778H89.7555V435.956Z" fill="white"/>
<path d="M102.578 435.956H89.7556V448.778H102.578V435.956Z" fill="white"/>
<path d="M115.4 435.956H102.578V448.778H115.4V435.956Z" fill="white"/>
<path d="M128.222 435.956H115.4V448.778H128.222V435.956Z" fill="white"/>
<path d="M141.044 435.956H128.222V448.778H141.044V435.956Z" fill="white"/>
<path d="M153.867 435.956H141.044V448.778H153.867V435.956Z" fill="white"/>
<path d="M179.511 435.956H166.689V448.778H179.511V435.956Z" fill="white"/>
<path d="M217.978 435.956H205.156V448.778H217.978V435.956Z" fill="white"/>
<path d="M256.444 435.956H243.622V448.778H256.444V435.956Z" fill="white"/>
<path d="M269.267 435.956H256.444V448.778H269.267V435.956Z" fill="white"/>
<path d="M282.089 435.956H269.267V448.778H282.089V435.956Z" fill="white"/>
<path d="M307.733 435.956H294.911V448.778H307.733V435.956Z" fill="white"/>
<path d="M320.556 435.956H307.733V448.778H320.556V435.956Z" fill="white"/>
<path d="M333.378 435.956H320.556V448.778H333.378V435.956Z" fill="white"/>
<path d="M346.2 435.956H333.378V448.778H346.2V435.956Z" fill="white"/>
<path d="M371.844 435.956H359.022V448.778H371.844V435.956Z" fill="white"/>
<path d="M384.667 435.956H371.844V448.778H384.667V435.956Z" fill="white"/>
<path d="M397.489 435.956H384.667V448.778H397.489V435.956Z" fill="white"/>
<path d="M410.311 435.956H397.489V448.778H410.311V435.956Z" fill="white"/>
<path d="M435.956 435.956H423.133V448.778H435.956V435.956Z" fill="white"/>
<path d="M448.778 435.956H435.956V448.778H448.778V435.956Z" fill="white"/>
<path d="M461.6 435.956H448.778V448.778H461.6V435.956Z" fill="white"/>
<path d="M474.422 435.956H461.6V448.778H474.422V435.956Z" fill="white"/>
<path d="M487.244 435.956H474.422V448.778H487.244V435.956Z" fill="white"/>
<path d="M500.067 435.956H487.244V448.778H500.067V435.956Z" fill="white"/>
<path d="M525.711 435.956H512.889V448.778H525.711V435.956Z" fill="white"/>
<path d="M538.533 435.956H525.711V448.778H538.533V435.956Z" fill="white"/>
<path d="M141.044 448.778H128.222V461.6H141.044V448.778Z" fill="white"/>
<path d="M166.689 448.778H153.867V461.6H166.689V448.778Z" fill="white"/>
<path d="M205.156 448.778H192.333V461.6H205.156V448.778Z" fill="white"/>
<path d="M217.978 448.778H205.156V461.6H217.978V448.778Z" fill="white"/>
<path d="M230.8 448.778H217.978V461.6H230.8V448.778Z" fill="white"/>
<path d="M243.622 448.778H230.8V461.6H243.622V448.778Z" fill="white"/>
<path d="M256.444 448.778H243.622V461.6H256.444V448.778Z" fill="white"/>
<path d="M269.267 448.778H256.444V461.6H269.267V448.778Z" fill="white"/>
<path d="M294.911 448.778H282.089V461.6H294.911V448.778Z" fill="white"/>
<path d="M307.733 448.778H294.911V461.6H307.733V448.778Z" fill="white"/>
<path d="M346.2 448.778H333.378V461.6H346.2V448.778Z" fill="white"/>
<path d="M359.022 448.778H346.2V461.6H359.022V448.778Z" fill="white"/>
<path d="M397.489 448.778H384.667V461.6H397.489V448.778Z" fill="white"/>
<path d="M410.311 448.778H397.489V461.6H410.311V448.778Z" fill="white"/>
<path d="M423.133 448.778H410.311V461.6H423.133V448.778Z" fill="white"/>
<path d="M448.778 448.778H435.956V461.6H448.778V448.778Z" fill="white"/>
<path d="M500.067 448.778H487.244V461.6H500.067V448.778Z" fill="white"/>
<path d="M551.356 448.778H538.533V461.6H551.356V448.778Z" fill="white"/>
<path d="M153.867 461.6H141.044V474.422H153.867V461.6Z" fill="white"/>
<path d="M179.511 461.6H166.689V474.422H179.511V461.6Z" fill="white"/>
<path d="M192.333 461.6H179.511V474.422H192.333V461.6Z" fill="white"/>
<path d="M205.156 461.6H192.333V474.422H205.156V461.6Z" fill="white"/>
<path d="M256.444 461.6H243.622V474.422H256.444V461.6Z" fill="white"/>
<path d="M269.267 461.6H256.444V474.422H269.267V461.6Z" fill="white"/>
<path d="M282.089 461.6H269.267V474.422H282.089V461.6Z" fill="white"/>
<path d="M307.733 461.6H294.911V474.422H307.733V461.6Z" fill="white"/>
<path d="M320.556 461.6H307.733V474.422H320.556V461.6Z" fill="white"/>
<path d="M346.2 461.6H333.378V474.422H346.2V461.6Z" fill="white"/>
<path d="M359.022 461.6H346.2V474.422H359.022V461.6Z" fill="white"/>
<path d="M384.667 461.6H371.844V474.422H384.667V461.6Z" fill="white"/>
<path d="M397.489 461.6H384.667V474.422H397.489V461.6Z" fill="white"/>
<path d="M410.311 461.6H397.489V474.422H410.311V461.6Z" fill="white"/>
<path d="M435.956 461.6H423.133V474.422H435.956V461.6Z" fill="white"/>
<path d="M448.778 461.6H435.956V474.422H448.778V461.6Z" fill="white"/>
<path d="M474.422 461.6H461.6V474.422H474.422V461.6Z" fill="white"/>
<path d="M500.067 461.6H487.244V474.422H500.067V461.6Z" fill="white"/>
<path d="M512.889 461.6H500.067V474.422H512.889V461.6Z" fill="white"/>
<path d="M525.711 461.6H512.889V474.422H525.711V461.6Z" fill="white"/>
<path d="M153.867 474.422H141.044V487.244H153.867V474.422Z" fill="white"/>
<path d="M166.689 474.422H153.867V487.244H166.689V474.422Z" fill="white"/>
<path d="M192.333 474.422H179.511V487.244H192.333V474.422Z" fill="white"/>
<path d="M205.156 474.422H192.333V487.244H205.156V474.422Z" fill="white"/>
<path d="M230.8 474.422H217.978V487.244H230.8V474.422Z" fill="white"/>
<path d="M243.622 474.422H230.8V487.244H243.622V474.422Z" fill="white"/>
<path d="M269.267 474.422H256.444V487.244H269.267V474.422Z" fill="white"/>
<path d="M307.733 474.422H294.911V487.244H307.733V474.422Z" fill="white"/>
<path d="M359.022 474.422H346.2V487.244H359.022V474.422Z" fill="white"/>
<path d="M371.844 474.422H359.022V487.244H371.844V474.422Z" fill="white"/>
<path d="M397.489 474.422H384.667V487.244H397.489V474.422Z" fill="white"/>
<path d="M410.311 474.422H397.489V487.244H410.311V474.422Z" fill="white"/>
<path d="M423.133 474.422H410.311V487.244H423.133V474.422Z" fill="white"/>
<path d="M435.956 474.422H423.133V487.244H435.956V474.422Z" fill="white"/>
<path d="M448.778 474.422H435.956V487.244H448.778V474.422Z" fill="white"/>
<path d="M500.067 474.422H487.244V487.244H500.067V474.422Z" fill="white"/>
<path d="M512.889 474.422H500.067V487.244H512.889V474.422Z" fill="white"/>
<path d="M538.533 474.422H525.711V487.244H538.533V474.422Z" fill="white"/>
<path d="M551.356 474.422H538.533V487.244H551.356V474.422Z" fill="white"/>
<path d="M141.044 487.244H128.222V500.067H141.044V487.244Z" fill="white"/>
<path d="M179.511 487.244H166.689V500.067H179.511V487.244Z" fill="white"/>
<path d="M192.333 487.244H179.511V500.067H192.333V487.244Z" fill="white"/>
<path d="M205.156 487.244H192.333V500.067H205.156V487.244Z" fill="white"/>
<path d="M230.8 487.244H217.978V500.067H230.8V487.244Z" fill="white"/>
<path d="M256.444 487.244H243.622V500.067H256.444V487.244Z" fill="white"/>
<path d="M294.911 487.244H282.089V500.067H294.911V487.244Z" fill="white"/>
<path d="M307.733 487.244H294.911V500.067H307.733V487.244Z" fill="white"/>
<path d="M448.778 487.244H435.956V500.067H448.778V487.244Z" fill="white"/>
<path d="M461.6 487.244H448.778V500.067H461.6V487.244Z" fill="white"/>
<path d="M474.422 487.244H461.6V500.067H474.422V487.244Z" fill="white"/>
<path d="M487.244 487.244H474.422V500.067H487.244V487.244Z" fill="white"/>
<path d="M500.067 487.244H487.244V500.067H500.067V487.244Z" fill="white"/>
<path d="M512.889 487.244H500.067V500.067H512.889V487.244Z" fill="white"/>
<path d="M525.711 487.244H512.889V500.067H525.711V487.244Z" fill="white"/>
<path d="M551.356 487.244H538.533V500.067H551.356V487.244Z" fill="white"/>
<path d="M141.044 500.067H128.222V512.889H141.044V500.067Z" fill="white"/>
<path d="M153.867 500.067H141.044V512.889H153.867V500.067Z" fill="white"/>
<path d="M166.689 500.067H153.867V512.889H166.689V500.067Z" fill="white"/>
<path d="M179.511 500.067H166.689V512.889H179.511V500.067Z" fill="white"/>
<path d="M192.333 500.067H179.511V512.889H192.333V500.067Z" fill="white"/>
<path d="M205.156 500.067H192.333V512.889H205.156V500.067Z" fill="white"/>
<path d="M256.444 500.067H243.622V512.889H256.444V500.067Z" fill="white"/>
<path d="M307.733 500.067H294.911V512.889H307.733V500.067Z" fill="white"/>
<path d="M346.2 500.067H333.378V512.889H346.2V500.067Z" fill="white"/>
<path d="M359.022 500.067H346.2V512.889H359.022V500.067Z" fill="white"/>
<path d="M371.844 500.067H359.022V512.889H371.844V500.067Z" fill="white"/>
<path d="M397.489 500.067H384.667V512.889H397.489V500.067Z" fill="white"/>
<path d="M423.133 500.067H410.311V512.889H423.133V500.067Z" fill="white"/>
<path d="M435.956 500.067H423.133V512.889H435.956V500.067Z" fill="white"/>
<path d="M461.6 500.067H448.778V512.889H461.6V500.067Z" fill="white"/>
<path d="M487.244 500.067H474.422V512.889H487.244V500.067Z" fill="white"/>
<path d="M512.889 500.067H500.067V512.889H512.889V500.067Z" fill="white"/>
<path d="M525.711 500.067H512.889V512.889H525.711V500.067Z" fill="white"/>
<path d="M551.356 500.067H538.533V512.889H551.356V500.067Z" fill="white"/>
<path d="M141.044 512.889H128.222V525.711H141.044V512.889Z" fill="white"/>
<path d="M179.511 512.889H166.689V525.711H179.511V512.889Z" fill="white"/>
<path d="M243.622 512.889H230.8V525.711H243.622V512.889Z" fill="white"/>
<path d="M269.267 512.889H256.444V525.711H269.267V512.889Z" fill="white"/>
<path d="M282.089 512.889H269.267V525.711H282.089V512.889Z" fill="white"/>
<path d="M333.378 512.889H320.556V525.711H333.378V512.889Z" fill="white"/>
<path d="M371.844 512.889H359.022V525.711H371.844V512.889Z" fill="white"/>
<path d="M384.667 512.889H371.844V525.711H384.667V512.889Z" fill="white"/>
<path d="M397.489 512.889H384.667V525.711H397.489V512.889Z" fill="white"/>
<path d="M410.311 512.889H397.489V525.711H410.311V512.889Z" fill="white"/>
<path d="M461.6 512.889H448.778V525.711H461.6V512.889Z" fill="white"/>
<path d="M474.422 512.889H461.6V525.711H474.422V512.889Z" fill="white"/>
<path d="M487.244 512.889H474.422V525.711H487.244V512.889Z" fill="white"/>
<path d="M500.067 512.889H487.244V525.711H500.067V512.889Z" fill="white"/>
<path d="M538.533 512.889H525.711V525.711H538.533V512.889Z" fill="white"/>
<path d="M153.867 525.711H141.044V538.533H153.867V525.711Z" fill="white"/>
<path d="M179.511 525.711H166.689V538.533H179.511V525.711Z" fill="white"/>
<path d="M192.333 525.711H179.511V538.533H192.333V525.711Z" fill="white"/>
<path d="M205.156 525.711H192.333V538.533H205.156V525.711Z" fill="white"/>
<path d="M217.978 525.711H205.156V538.533H217.978V525.711Z" fill="white"/>
<path d="M230.8 525.711H217.978V538.533H230.8V525.711Z" fill="white"/>
<path d="M256.444 525.711H243.622V538.533H256.444V525.711Z" fill="white"/>
<path d="M269.267 525.711H256.444V538.533H269.267V525.711Z" fill="white"/>
<path d="M307.733 525.711H294.911V538.533H307.733V525.711Z" fill="white"/>
<path d="M320.556 525.711H307.733V538.533H320.556V525.711Z" fill="white"/>
<path d="M397.489 525.711H384.667V538.533H397.489V525.711Z" fill="white"/>
<path d="M448.778 525.711H435.956V538.533H448.778V525.711Z" fill="white"/>
<path d="M474.422 525.711H461.6V538.533H474.422V525.711Z" fill="white"/>
<path d="M500.067 525.711H487.244V538.533H500.067V525.711Z" fill="white"/>
<path d="M538.533 525.711H525.711V538.533H538.533V525.711Z" fill="white"/>
<path d="M166.689 538.533H153.867V551.356H166.689V538.533Z" fill="white"/>
<path d="M179.511 538.533H166.689V551.356H179.511V538.533Z" fill="white"/>
<path d="M192.333 538.533H179.511V551.356H192.333V538.533Z" fill="white"/>
<path d="M205.156 538.533H192.333V551.356H205.156V538.533Z" fill="white"/>
<path d="M294.911 538.533H282.089V551.356H294.911V538.533Z" fill="white"/>
<path d="M410.311 538.533H397.489V551.356H410.311V538.533Z" fill="white"/>
<path d="M423.133 538.533H410.311V551.356H423.133V538.533Z" fill="white"/>
<path d="M487.244 538.533H474.422V551.356H487.244V538.533Z" fill="white"/>
<path d="M500.067 538.533H487.244V551.356H500.067V538.533Z" fill="white"/>
<path d="M512.889 538.533H500.067V551.356H512.889V538.533Z" fill="white"/>
<path d="M525.711 538.533H512.889V551.356H525.711V538.533Z" fill="white"/>
</mask>
<g mask="url(#mask0_301_1196)">
<path d="M577 0H0V577H577V0Z" fill="black"/>
</g>
<path d="M25.6444 25.6444V115.4H115.4V25.6444H25.6444ZM102.578 102.578H38.4667V38.4667H102.578V102.578Z" fill="black"/>
<path d="M461.6 25.6444V115.4H551.356V25.6444H461.6ZM538.533 102.578H474.422V38.4667H538.533V102.578Z" fill="black"/>
<path d="M25.6444 461.6V551.356H115.4V461.6H25.6444ZM102.578 538.533H38.4667V474.422H102.578V538.533Z" fill="black"/>
<path d="M89.7555 51.2889H51.2889V89.7556H89.7555V51.2889Z" fill="black"/>
<path d="M525.711 51.2889H487.244V89.7556H525.711V51.2889Z" fill="black"/>
<path d="M89.7555 487.244H51.2889V525.711H89.7555V487.244Z" fill="black"/>
</svg>
